<svg width="424" height="112" viewBox="0 0 424 112" fill="none" xmlns="http://www.w3.org/2000/svg">
<path d="M167.887 48.462C165.137 48.462 163.003 47.329 161.485 45.063V43.281C162.079 44.601 162.937 45.635 164.059 46.383C165.203 47.131 166.567 47.505 168.151 47.505C169.251 47.505 170.263 47.263 171.187 46.779C172.133 46.295 172.881 45.613 173.431 44.733C173.981 43.853 174.256 42.841 174.256 41.697C174.256 40.663 174.08 39.772 173.728 39.024C173.376 38.276 172.793 37.561 171.979 36.879C171.165 36.175 169.988 35.35 168.448 34.404L167.392 33.744C166.424 33.15 165.643 32.622 165.049 32.16C164.455 31.698 163.938 31.159 163.498 30.543C162.926 29.685 162.64 28.695 162.64 27.573C162.64 26.077 163.124 24.911 164.092 24.075C165.06 23.239 166.292 22.821 167.788 22.821C169.812 22.821 171.418 23.569 172.606 25.065V26.748C172.1 25.824 171.407 25.098 170.527 24.57C169.647 24.042 168.679 23.778 167.623 23.778C166.523 23.778 165.599 24.119 164.851 24.801C164.103 25.483 163.729 26.396 163.729 27.54C163.729 28.662 164.07 29.63 164.752 30.444C165.456 31.236 166.633 32.105 168.283 33.051C170.307 34.239 171.88 35.317 173.002 36.285C173.794 37.011 174.366 37.814 174.718 38.694C175.092 39.574 175.279 40.553 175.279 41.631C175.279 42.995 174.96 44.194 174.322 45.228C173.684 46.262 172.804 47.065 171.682 47.637C170.56 48.187 169.295 48.462 167.887 48.462ZM185.739 48.363C184.331 48.363 183.022 48.011 181.812 47.307C180.602 46.603 179.645 45.657 178.941 44.469C178.237 43.259 177.885 41.961 177.885 40.575C177.885 39.189 178.237 37.902 178.941 36.714C179.645 35.504 180.602 34.547 181.812 33.843C183.022 33.139 184.331 32.787 185.739 32.787C187.169 32.787 188.522 33.172 189.798 33.942C191.074 34.69 191.965 35.669 192.471 36.879V33.15H193.527V48H192.471V44.304C191.877 45.536 190.953 46.526 189.699 47.274C188.467 48 187.147 48.363 185.739 48.363ZM185.805 47.439C187.015 47.439 188.137 47.131 189.171 46.515C190.205 45.877 191.019 45.041 191.613 44.007C192.229 42.951 192.537 41.807 192.537 40.575C192.537 39.365 192.229 38.232 191.613 37.176C190.997 36.12 190.172 35.284 189.138 34.668C188.104 34.03 186.982 33.711 185.772 33.711C184.562 33.711 183.429 34.03 182.373 34.668C181.339 35.306 180.503 36.153 179.865 37.209C179.249 38.265 178.941 39.398 178.941 40.608C178.941 41.818 179.249 42.951 179.865 44.007C180.503 45.041 181.35 45.877 182.406 46.515C183.462 47.131 184.595 47.439 185.805 47.439ZM197.692 33.15H198.748V35.394C199.76 33.656 201.388 32.787 203.632 32.787C204.71 32.787 205.645 33.095 206.437 33.711C207.229 34.305 207.779 35.207 208.087 36.417C208.373 35.339 209 34.47 209.968 33.81C210.958 33.128 212.069 32.787 213.301 32.787C214.907 32.787 216.15 33.26 217.03 34.206C217.91 35.13 218.35 36.45 218.35 38.166V48H217.294V38.166C217.294 36.78 216.931 35.691 216.205 34.899C215.501 34.107 214.566 33.711 213.4 33.711C212.52 33.711 211.706 33.931 210.958 34.371C210.21 34.789 209.616 35.361 209.176 36.087C208.736 36.813 208.516 37.616 208.516 38.496V48H207.46V38.76C207.46 37.176 207.086 35.944 206.338 35.064C205.59 34.162 204.622 33.711 203.434 33.711C202.642 33.711 201.883 33.909 201.157 34.305C200.453 34.701 199.87 35.24 199.408 35.922C198.968 36.582 198.748 37.308 198.748 38.1V48H197.692V33.15ZM222.506 33.15H223.562V36.78C224.156 35.592 225.08 34.635 226.334 33.909C227.588 33.161 228.908 32.787 230.294 32.787C231.724 32.787 233.033 33.139 234.221 33.843C235.431 34.547 236.388 35.493 237.092 36.681C237.796 37.869 238.148 39.167 238.148 40.575C238.148 41.983 237.796 43.281 237.092 44.469C236.388 45.657 235.431 46.603 234.221 47.307C233.033 48.011 231.724 48.363 230.294 48.363C228.952 48.363 227.654 48 226.4 47.274C225.168 46.548 224.222 45.591 223.562 44.403V54.6H222.506V33.15ZM230.36 47.439C231.57 47.439 232.692 47.131 233.726 46.515C234.76 45.877 235.574 45.041 236.168 44.007C236.784 42.951 237.092 41.807 237.092 40.575C237.092 39.365 236.784 38.232 236.168 37.176C235.552 36.12 234.727 35.284 233.693 34.668C232.659 34.03 231.537 33.711 230.327 33.711C229.117 33.711 227.984 34.03 226.928 34.668C225.894 35.306 225.058 36.153 224.42 37.209C223.804 38.265 223.496 39.398 223.496 40.608C223.496 41.818 223.804 42.951 224.42 44.007C225.058 45.041 225.905 45.877 226.961 46.515C228.017 47.131 229.15 47.439 230.36 47.439ZM247.098 48.297C246.064 48.297 245.118 48.066 244.26 47.604C243.402 47.12 242.72 46.449 242.214 45.591C241.708 44.733 241.455 43.776 241.455 42.72V23.25H242.511V42.72C242.511 43.6 242.709 44.392 243.105 45.096C243.523 45.8 244.084 46.361 244.788 46.779C245.492 47.175 246.262 47.373 247.098 47.373V48.297ZM256.739 47.472C257.883 47.472 258.972 47.175 260.006 46.581C261.04 45.987 261.898 45.173 262.58 44.139V45.822C261.766 46.724 260.875 47.384 259.907 47.802C258.939 48.198 257.839 48.396 256.607 48.396C255.243 48.396 253.956 48.033 252.746 47.307C251.558 46.581 250.601 45.613 249.875 44.403C249.171 43.193 248.819 41.906 248.819 40.542C248.819 39.068 249.171 37.748 249.875 36.582C250.579 35.394 251.536 34.47 252.746 33.81C253.978 33.15 255.342 32.82 256.838 32.82C259.126 32.82 261.073 33.722 262.679 35.526L252.317 45.756C253.043 46.35 253.747 46.79 254.429 47.076C255.111 47.34 255.881 47.472 256.739 47.472ZM249.875 40.443C249.875 42.269 250.48 43.831 251.69 45.129L261.359 35.526C260.633 34.888 259.929 34.437 259.247 34.173C258.565 33.887 257.751 33.744 256.805 33.744C255.463 33.744 254.264 34.041 253.208 34.635C252.174 35.207 251.36 35.999 250.766 37.011C250.172 38.023 249.875 39.167 249.875 40.443Z" fill="#FC6767"/>
<path d="M163.807 63.6514H165.283V85H163.807V63.6514ZM157.9 56.9453V55.4688H180.049V56.9453H157.9ZM157.9 59.8984V58.4219H180.049V59.8984H157.9ZM157.9 62.8516V61.375H180.049V62.8516H157.9ZM172.666 63.6514H174.143V85H172.666V63.6514ZM169.713 63.6514H171.189V85H169.713V63.6514ZM166.76 63.6514H168.236V85H166.76V63.6514ZM190.692 85H189.216V55.4688H190.692V85ZM187.739 85H186.263V55.4688H187.739V85ZM184.786 85H183.31V55.4688H184.786V85ZM193.646 77.6172H207.775V79.0938H193.646V80.5703H207.775V82.0469H193.646V83.5234H207.775V85H192.169V55.4688H207.775V56.9453H193.646V58.4219H207.775V59.8984H193.646V61.375H207.775V62.8516H193.646V66.5225H206.955V67.999H193.646V69.4756H206.955V70.9521H193.646V72.4287H206.955V73.9053H193.646V77.6172ZM239.993 55.4688H241.798L222.972 85H221.126L239.993 55.4688ZM236.343 55.4688H238.147L219.301 85H217.496L236.343 55.4688ZM232.692 55.4688H234.518L215.671 85H213.846L232.692 55.4688ZM229.042 55.4688H230.888L212.021 85H210.216L229.042 55.4688ZM220.019 67.999L219.116 69.4346L210.216 55.4688H212.021L220.019 67.999ZM226.479 80.96L227.381 79.5244L230.888 85H229.042L226.479 80.96ZM221.844 65.1484L220.941 66.5635L213.866 55.4688H215.671L221.844 65.1484ZM228.304 78.0889L229.206 76.6738L234.518 85H232.713L228.304 78.0889ZM223.669 62.2773L222.767 63.7129L217.496 55.4688H219.321L223.669 62.2773ZM230.108 75.2383L231.031 73.8027L238.168 85H236.343L230.108 75.2383ZM225.494 59.4268L224.571 60.8623L221.126 55.4688H222.972L225.494 59.4268ZM231.934 72.3877L232.856 70.9727L241.798 85H239.993L231.934 72.3877ZM249.734 63.6514H251.211V85H249.734V63.6514ZM243.828 56.9453V55.4688H265.977V56.9453H243.828ZM243.828 59.8984V58.4219H265.977V59.8984H243.828ZM243.828 62.8516V61.375H265.977V62.8516H243.828ZM258.594 63.6514H260.07V85H258.594V63.6514ZM255.641 63.6514H257.117V85H255.641V63.6514ZM252.688 63.6514H254.164V85H252.688V63.6514Z" fill="#EC008C"/>
</svg>
