<svg width="424" height="112" viewBox="0 0 424 112" fill="none" xmlns="http://www.w3.org/2000/svg">
<g filter="url(#filter0_d)">
<path d="M120.737 63.448L123.393 60.12C124.694 61.2507 125.942 62.0827 127.137 62.616C128.353 63.128 129.633 63.384 130.977 63.384C132.363 63.384 133.473 63.128 134.305 62.616C135.137 62.104 135.553 61.4213 135.553 60.568C135.553 59.8 135.265 59.2027 134.689 58.776C134.134 58.3493 133.195 58.0293 131.873 57.816L127.425 57.048C125.505 56.728 124.043 56.056 123.041 55.032C122.059 54.008 121.569 52.6853 121.569 51.064C121.569 48.9733 122.358 47.32 123.937 46.104C125.537 44.888 127.691 44.28 130.401 44.28C132.022 44.28 133.654 44.5573 135.297 45.112C136.961 45.6667 138.411 46.4347 139.649 47.416L137.153 50.872C135.958 49.9547 134.785 49.2827 133.633 48.856C132.481 48.408 131.297 48.184 130.081 48.184C128.843 48.184 127.851 48.4187 127.105 48.888C126.358 49.336 125.985 49.944 125.985 50.712C125.985 51.3947 126.23 51.928 126.721 52.312C127.211 52.696 128.033 52.9733 129.185 53.144L133.409 53.848C135.627 54.2107 137.291 54.9253 138.401 55.992C139.531 57.0373 140.097 58.424 140.097 60.152C140.097 62.328 139.233 64.0667 137.505 65.368C135.798 66.6693 133.515 67.32 130.657 67.32C128.865 67.32 127.094 66.9787 125.345 66.296C123.617 65.6133 122.081 64.664 120.737 63.448ZM148.492 67.288C146.7 67.288 145.239 66.8187 144.108 65.88C142.978 64.92 142.412 63.6827 142.412 62.168C142.412 60.5893 143.02 59.352 144.236 58.456C145.452 57.56 147.127 57.112 149.26 57.112C149.943 57.112 150.626 57.1653 151.308 57.272C151.991 57.3787 152.663 57.5387 153.324 57.752V56.568C153.324 55.608 153.026 54.8827 152.428 54.392C151.831 53.9013 150.956 53.656 149.804 53.656C149.1 53.656 148.332 53.7733 147.5 54.008C146.69 54.2213 145.762 54.5627 144.716 55.032L143.116 51.8C144.418 51.2027 145.676 50.7547 146.892 50.456C148.13 50.1573 149.346 50.008 150.54 50.008C152.78 50.008 154.519 50.552 155.756 51.64C157.015 52.7067 157.644 54.2213 157.644 56.184V67H153.324V65.848C152.62 66.3387 151.874 66.7013 151.084 66.936C150.316 67.1707 149.452 67.288 148.492 67.288ZM146.604 62.072C146.604 62.712 146.882 63.224 147.436 63.608C147.991 63.9707 148.727 64.152 149.644 64.152C150.37 64.152 151.031 64.0667 151.628 63.896C152.247 63.704 152.812 63.4373 153.324 63.096V60.6C152.791 60.3867 152.226 60.2373 151.628 60.152C151.052 60.0453 150.444 59.992 149.804 59.992C148.802 59.992 148.012 60.184 147.436 60.568C146.882 60.9307 146.604 61.432 146.604 62.072ZM160.962 67V50.328H165.346V51.576C165.944 51.064 166.605 50.68 167.33 50.424C168.056 50.1467 168.845 50.008 169.698 50.008C170.765 50.008 171.725 50.232 172.578 50.68C173.453 51.1067 174.168 51.7147 174.722 52.504C175.384 51.6933 176.184 51.0747 177.122 50.648C178.061 50.2213 179.096 50.008 180.226 50.008C182.082 50.008 183.608 50.6267 184.802 51.864C185.997 53.1013 186.594 54.6907 186.594 56.632V67H182.21V57.272C182.21 56.2267 181.922 55.384 181.346 54.744C180.792 54.104 180.034 53.784 179.074 53.784C178.413 53.784 177.805 53.9333 177.25 54.232C176.717 54.5093 176.258 54.9147 175.874 55.448C175.896 55.64 175.917 55.832 175.938 56.024C175.96 56.216 175.97 56.4187 175.97 56.632V67H171.586V57.272C171.586 56.2267 171.298 55.384 170.722 54.744C170.168 54.104 169.41 53.784 168.45 53.784C167.789 53.784 167.202 53.912 166.69 54.168C166.178 54.424 165.73 54.7973 165.346 55.288V67H160.962ZM189.962 73.688V50.328H194.282V51.704C194.944 51.1707 195.68 50.776 196.49 50.52C197.301 50.2427 198.144 50.104 199.018 50.104C200.192 50.104 201.29 50.328 202.314 50.776C203.36 51.224 204.266 51.832 205.034 52.6C205.802 53.368 206.4 54.2747 206.826 55.32C207.274 56.3653 207.498 57.4853 207.498 58.68C207.498 59.8747 207.274 60.9947 206.826 62.04C206.378 63.0853 205.77 63.992 205.002 64.76C204.234 65.528 203.317 66.136 202.25 66.584C201.205 67.0107 200.085 67.224 198.89 67.224C198.08 67.224 197.28 67.1173 196.49 66.904C195.722 66.6693 195.008 66.3387 194.346 65.912V73.688H189.962ZM198.314 53.848C197.525 53.848 196.789 53.9867 196.106 54.264C195.424 54.52 194.837 54.904 194.346 55.416V61.976C194.816 62.4453 195.392 62.8187 196.074 63.096C196.778 63.3733 197.525 63.512 198.314 63.512C199.68 63.512 200.832 63.0533 201.77 62.136C202.709 61.1973 203.178 60.0453 203.178 58.68C203.178 57.3147 202.698 56.1733 201.738 55.256C200.8 54.3173 199.658 53.848 198.314 53.848ZM214.565 43.64V67H210.181V44.6L214.565 43.64ZM232.938 64.92C231.914 65.752 230.858 66.36 229.77 66.744C228.703 67.128 227.508 67.32 226.186 67.32C224.927 67.32 223.743 67.096 222.634 66.648C221.546 66.2 220.596 65.592 219.786 64.824C218.996 64.056 218.367 63.1493 217.898 62.104C217.45 61.0373 217.226 59.896 217.226 58.68C217.226 57.4853 217.439 56.3653 217.866 55.32C218.314 54.2533 218.922 53.336 219.69 52.568C220.458 51.7787 221.364 51.16 222.41 50.712C223.476 50.264 224.607 50.04 225.802 50.04C226.975 50.04 228.063 50.2747 229.066 50.744C230.09 51.192 230.964 51.8107 231.69 52.6C232.436 53.3893 233.012 54.3387 233.418 55.448C233.844 56.536 234.058 57.72 234.058 59V60.152H221.642C221.94 61.1973 222.516 62.04 223.37 62.68C224.223 63.32 225.226 63.64 226.378 63.64C227.103 63.64 227.786 63.5227 228.426 63.288C229.066 63.0533 229.61 62.7227 230.058 62.296L232.938 64.92ZM225.706 53.656C224.703 53.656 223.839 53.9653 223.114 54.584C222.388 55.1813 221.887 55.992 221.61 57.016H229.77C229.492 56.0347 228.98 55.2347 228.234 54.616C227.508 53.976 226.666 53.656 225.706 53.656ZM245.453 62.296V54.008H242.029V50.328H245.453V46.072L249.837 45.08V50.328H254.573V54.008H249.837V61.4C249.837 62.1893 250.008 62.744 250.349 63.064C250.69 63.384 251.288 63.544 252.141 63.544C252.546 63.544 252.93 63.5227 253.293 63.48C253.656 63.416 254.05 63.3093 254.477 63.16V66.744C254.008 66.8933 253.442 67.0107 252.781 67.096C252.12 67.2027 251.554 67.256 251.085 67.256C249.229 67.256 247.821 66.84 246.861 66.008C245.922 65.1547 245.453 63.9173 245.453 62.296ZM271.531 64.92C270.507 65.752 269.451 66.36 268.363 66.744C267.297 67.128 266.102 67.32 264.779 67.32C263.521 67.32 262.337 67.096 261.227 66.648C260.139 66.2 259.19 65.592 258.379 64.824C257.59 64.056 256.961 63.1493 256.491 62.104C256.043 61.0373 255.819 59.896 255.819 58.68C255.819 57.4853 256.033 56.3653 256.459 55.32C256.907 54.2533 257.515 53.336 258.283 52.568C259.051 51.7787 259.958 51.16 261.003 50.712C262.07 50.264 263.201 50.04 264.395 50.04C265.569 50.04 266.657 50.2747 267.659 50.744C268.683 51.192 269.558 51.8107 270.283 52.6C271.03 53.3893 271.606 54.3387 272.011 55.448C272.438 56.536 272.651 57.72 272.651 59V60.152H260.235C260.534 61.1973 261.11 62.04 261.963 62.68C262.817 63.32 263.819 63.64 264.971 63.64C265.697 63.64 266.379 63.5227 267.019 63.288C267.659 63.0533 268.203 62.7227 268.651 62.296L271.531 64.92ZM264.299 53.656C263.297 53.656 262.433 53.9653 261.707 54.584C260.982 55.1813 260.481 55.992 260.203 57.016H268.363C268.086 56.0347 267.574 55.2347 266.827 54.616C266.102 53.976 265.259 53.656 264.299 53.656ZM272.295 67L278.695 58.52L272.455 50.328H277.543L281.223 55.288L284.871 50.328H289.799L283.655 58.456L290.183 67H285.063L281.127 61.688L277.191 67H272.295ZM293.797 62.296V54.008H290.373V50.328H293.797V46.072L298.181 45.08V50.328H302.917V54.008H298.181V61.4C298.181 62.1893 298.352 62.744 298.693 63.064C299.034 63.384 299.632 63.544 300.485 63.544C300.89 63.544 301.274 63.5227 301.637 63.48C302 63.416 302.394 63.3093 302.821 63.16V66.744C302.352 66.8933 301.786 67.0107 301.125 67.096C300.464 67.2027 299.898 67.256 299.429 67.256C297.573 67.256 296.165 66.84 295.205 66.008C294.266 65.1547 293.797 63.9173 293.797 62.296Z" fill="#EF4444"/>
</g>
<defs>
<filter id="filter0_d" x="120.737" y="43.64" width="184.18" height="32.048" filterUnits="userSpaceOnUse" color-interpolation-filters="sRGB">
<feFlood flood-opacity="0" result="BackgroundImageFix"/>
<feColorMatrix in="SourceAlpha" type="matrix" values="0 0 0 0 0 0 0 0 0 0 0 0 0 0 0 0 0 0 127 0"/>
<feOffset dx="2" dy="2"/>
<feColorMatrix type="matrix" values="0 0 0 0 0.9375 0 0 0 0 0.265625 0 0 0 0 0.265625 0 0 0 0.4 0"/>
<feBlend mode="normal" in2="BackgroundImageFix" result="effect1_dropShadow"/>
<feBlend mode="normal" in="SourceGraphic" in2="effect1_dropShadow" result="shape"/>
</filter>
</defs>
</svg>
