<svg width="291" height="256" viewBox="0 0 291 256" fill="none" xmlns="http://www.w3.org/2000/svg">
<g clip-path="url(#clip0)">
<path d="M195.465 167.743V168.33L190.224 165.292L185.629 167.966L193.892 172.767L198.488 170.093V167.743H195.465Z" fill="#BFD2E2"/>
<path opacity="0.3" d="M110.007 226.73L189.418 180.687C190.103 180.282 190.345 179.411 189.942 178.722C189.821 178.519 189.64 178.337 189.438 178.216L96.7245 121.964C96.2811 121.7 95.7369 121.68 95.2935 121.923L14.6326 168.715C13.9473 169.1 13.6853 169.971 14.0683 170.68C14.1892 170.903 14.3706 171.106 14.6125 171.227L108.576 226.75C109.019 226.993 109.563 226.993 110.007 226.73Z" fill="#969696" fill-opacity="0.24"/>
<path d="M193.892 170.417L185.629 165.616L190.224 162.962L198.488 167.743L193.892 170.417Z" fill="#EEF6FF"/>
<path d="M193.852 171.653V172.908L142.618 141.774C142.174 141.511 141.63 141.491 141.187 141.734L61.715 187.675L61.4732 186.521L59.8003 188.324V189.802C59.8003 190.309 60.0825 190.795 60.5057 191.038L115.126 222.719C115.57 222.982 116.114 222.982 116.557 222.719L195.968 176.696C196.412 176.453 196.694 175.967 196.694 175.461V173.962L193.852 171.653Z" fill="url(#paint0_linear)"/>
<path opacity="0.7" d="M193.852 171.612V172.929L142.618 141.774C142.174 141.511 141.63 141.491 141.187 141.734L63.0453 186.095L61.4732 186.521L59.8003 188.06V189.802C59.8003 190.309 60.0825 190.795 60.5057 191.038L115.106 222.719C115.549 222.982 116.094 222.982 116.537 222.719L195.948 176.696C196.392 176.453 196.674 175.967 196.674 175.461V173.962L193.852 171.612Z" fill="url(#paint1_linear)"/>
<path d="M116.557 221.22L195.968 175.197C196.654 174.812 196.896 173.921 196.493 173.232C196.372 173.01 196.19 172.848 195.989 172.706L142.618 140.275C142.174 140.012 141.63 140.012 141.187 140.255L60.5662 187.027C59.8809 187.412 59.6189 188.283 60.0019 188.992C60.1228 189.215 60.3042 189.417 60.5461 189.539L115.146 221.22C115.57 221.483 116.114 221.483 116.557 221.22Z" fill="url(#paint2_linear)"/>
<path d="M141.106 75.7385L140.582 75.4955C140.139 75.2726 139.635 75.2929 139.212 75.536L59.9213 122.875C59.4778 123.138 59.2158 123.604 59.2158 124.111V186.136C59.2158 186.399 59.3771 186.662 59.6189 186.784L60.2236 187.047L62.9848 185.204L141.388 139.769V79.3037L141.832 79.5873L141.106 75.7385Z" fill="url(#paint3_linear)"/>
<path opacity="0.7" d="M141.106 75.7386L140.098 75.2322C139.655 75.0093 139.151 75.0296 138.728 75.2727L59.3972 122.612C58.9538 122.875 58.6918 123.341 58.6918 123.847V185.872C58.6918 186.136 58.853 186.399 59.0949 186.521L60.2236 187.027L62.4608 184.941L140.864 139.506V79.0404L141.308 79.324L141.106 75.7386Z" fill="url(#paint4_linear)"/>
<path d="M162.249 189.113L143.283 200.234C142.839 200.477 142.315 200.477 141.872 200.234L130.625 193.975C129.94 193.59 129.678 192.719 130.081 192.01C130.202 191.787 130.384 191.605 130.605 191.463L148.846 180.748C149.289 180.505 149.813 180.505 150.257 180.748L162.229 187.351C162.712 187.635 162.894 188.242 162.612 188.729C162.531 188.891 162.41 189.032 162.249 189.113Z" fill="url(#paint5_linear)"/>
<path opacity="0.7" d="M130.605 191.686L148.846 180.97C149.289 180.707 149.813 180.707 150.257 180.95L162.229 187.554C162.43 187.675 162.592 188.364 162.672 188.587C162.854 188.121 162.672 187.594 162.229 187.351L150.236 180.748C149.793 180.505 149.269 180.505 148.826 180.748L130.585 191.463C130.041 191.787 129.759 192.435 129.92 193.063C130.021 192.699 130.263 191.868 130.605 191.686Z" fill="url(#paint6_linear)"/>
<path d="M172.185 165.251L101.481 207C100.957 207.304 100.332 207.304 99.8083 207L73.5663 191.342C72.7802 190.876 72.5182 189.863 72.9818 189.073C73.1229 188.83 73.3244 188.627 73.5663 188.485L144.17 146.778C144.694 146.474 145.319 146.474 145.843 146.778L172.185 162.375C172.971 162.841 173.234 163.854 172.77 164.644C172.629 164.907 172.427 165.11 172.185 165.251Z" fill="url(#paint7_linear)"/>
<path opacity="0.7" d="M73.4857 188.81L144.19 147.061C144.714 146.757 145.339 146.757 145.863 147.061L172.085 162.699C172.468 162.922 172.75 164.077 172.851 164.542C173.213 163.773 172.951 162.841 172.206 162.416L145.964 146.778C145.44 146.474 144.815 146.474 144.291 146.778L73.5864 188.506C72.9818 188.87 72.6593 189.579 72.8205 190.288C72.9616 189.984 73.1833 188.972 73.4857 188.81Z" fill="url(#paint8_linear)"/>
<path d="M134.556 147.568L72.881 183.968C72.4376 184.232 71.8733 184.232 71.4298 183.968L68.5275 182.368C67.5802 181.801 69.0919 181.254 70.0391 180.707L131.613 144.327C132.057 144.063 132.621 144.063 133.064 144.327L134.536 145.076C135.221 145.481 135.463 146.352 135.06 147.041C134.959 147.264 134.777 147.446 134.556 147.568Z" fill="#102525"/>
<path d="M141.812 139.931L60.7274 186.926C60.3848 187.128 59.9414 187.007 59.7398 186.662C59.6794 186.561 59.6391 186.44 59.6391 186.318V124.273C59.6391 123.766 59.9011 123.301 60.3445 123.037L139.635 75.6981C140.32 75.2929 141.187 75.5158 141.61 76.1842C141.751 76.407 141.812 76.6704 141.812 76.9337V139.931Z" fill="#102525"/>
<path d="M138.788 138.067L65.2019 180.667C64.8996 180.849 64.5166 180.748 64.3352 180.423C64.2748 180.322 64.2546 180.221 64.2546 180.099V126.481C64.2546 125.974 64.5166 125.508 64.96 125.245L136.853 82.3624C137.458 81.9978 138.224 82.2003 138.587 82.808C138.708 83.0106 138.768 83.2334 138.768 83.4562V138.067H138.788Z" fill="#CDEBFF"/>
<path opacity="0.3" d="M155.618 234.711C152.615 239.856 149.108 241.132 142.799 241.091C141.771 241.091 140.743 240.95 139.756 240.646C139.715 240.706 139.695 240.767 139.655 240.828C138.143 243.421 134.334 245.507 131.17 245.487C128.005 245.467 126.635 243.34 128.146 240.747C129.497 238.438 132.681 236.513 135.604 236.149C135.483 234.832 135.866 233.293 136.813 231.652C139.816 226.507 143.323 225.251 149.632 225.291C155.96 225.352 158.621 229.565 155.618 234.711Z" fill="#969696"/>
<path d="M145.923 237.567C151.856 237.567 156.666 233.123 156.666 227.641C156.666 222.159 151.856 217.715 145.923 217.715C139.99 217.715 135.181 222.159 135.181 227.641C135.181 233.123 139.99 237.567 145.923 237.567Z" fill="#EF4444"/>
<g style="mix-blend-mode:multiply" opacity="0.7">
<path d="M149.531 230.7C145.198 230.7 141.63 227.439 141.63 223.408C141.63 221.888 142.134 220.41 143.081 219.194C139.171 220.308 136.329 223.671 136.329 227.661C136.329 232.543 140.622 236.513 145.903 236.513C151.002 236.513 155.154 232.847 155.457 228.229C153.905 229.829 151.768 230.72 149.531 230.7Z" fill="url(#paint9_linear)"/>
</g>
<path d="M135.422 240.484C138.417 240.484 140.844 238.244 140.844 235.48C140.844 232.717 138.417 230.477 135.422 230.477C132.428 230.477 130.001 232.717 130.001 235.48C130.001 238.244 132.428 240.484 135.422 240.484Z" fill="#EF4444"/>
<g style="mix-blend-mode:multiply" opacity="0.7">
<path d="M137.216 236.919C135.201 236.919 133.588 235.42 133.588 233.556C133.588 232.685 133.951 231.854 134.596 231.247C132.419 231.611 130.787 233.374 130.787 235.48C130.787 237.85 132.863 239.775 135.443 239.775C138.002 239.775 139.977 237.931 140.078 235.642C139.353 236.473 138.305 236.939 137.216 236.919Z" fill="url(#paint10_linear)"/>
</g>
<g opacity="0.25">
<path opacity="0.25" d="M284.127 87.5278L277.798 83.8614L283.039 80.7824L289.367 84.4488L284.127 87.5278Z" fill="#7E9DAA"/>
</g>
<path opacity="0.3" d="M252.262 122.348C247.425 125.043 246.78 129.215 250.911 131.707C255.023 134.198 262.259 134.077 267.116 131.403C271.832 128.81 272.538 124.779 268.849 122.267L271.953 120.566C272.618 120.201 272.699 119.614 272.135 119.269C271.429 118.925 270.603 118.945 269.898 119.31L266.532 121.133C262.339 119.634 256.434 120.059 252.262 122.348Z" fill="#969696"/>
<path d="M285.76 84.7121L279.431 81.0457L284.671 77.9667L291 81.6332L285.76 84.7121Z" fill="#BFD2E2"/>
<path d="M286.969 82.6662V83.1119L282.958 80.7824L281.003 81.937V81.0457H279.431V82.8283L285.76 86.4947L291 83.436V81.6331L286.969 82.6662Z" fill="#BFD2E2"/>
<path d="M285.76 84.7121L279.431 81.0457L284.671 77.9667L291 81.6332L285.76 84.7121Z" fill="#EEF6FF"/>
<path d="M217.575 166.406C216.446 166.406 215.338 166.102 214.37 165.535L207.537 161.585C205.683 160.511 203.406 160.511 201.551 161.585L194.598 165.616C194.497 165.677 194.356 165.636 194.296 165.535C194.235 165.434 194.275 165.312 194.376 165.251L201.33 161.22C203.325 160.066 205.764 160.066 207.759 161.22L214.592 165.211C216.446 166.285 218.724 166.285 220.598 165.211L279.713 130.735C284.591 127.899 286.264 121.599 283.422 116.697C282.535 115.157 281.245 113.861 279.713 112.97L265.846 104.908C262.783 103.125 261.735 99.1752 263.508 96.0962C264.073 95.1239 264.859 94.3339 265.826 93.7667L282.696 83.8411C282.797 83.7803 282.938 83.8208 282.998 83.9221C283.059 84.0234 283.019 84.1652 282.918 84.226L266.048 94.1516C263.186 95.8329 262.239 99.5195 263.912 102.396C264.436 103.287 265.181 104.037 266.068 104.563L279.935 112.625C285.034 115.583 286.767 122.146 283.805 127.25C282.878 128.871 281.547 130.208 279.935 131.14L220.82 165.616C219.812 166.122 218.703 166.406 217.575 166.406Z" fill="#A7C3D6"/>
<path opacity="0.25" d="M211.004 96.5621L158.137 128.02L190.869 148.216L245.429 116.555L211.004 96.5621Z" fill="#7E9DAA"/>
<path opacity="0.4" d="M238.093 104.746L187.221 134.381L221.646 154.354L251.98 136.751L260.122 130.755L248.856 119.816L255.809 115.036L238.093 104.746Z" fill="#7E9DAA"/>
<path d="M239.1 102.923L187.443 133.125L221.868 153.118L264.597 128.284L259.316 119.857L262.259 115.866L239.1 102.923Z" fill="url(#paint11_linear)"/>
<g opacity="0.3">
<g opacity="0.3">
<g opacity="0.4">
<path opacity="0.4" d="M244.381 122.065C243.958 122.267 243.474 122.247 243.071 122.004L228.882 113.76C228.499 113.537 228.438 113.193 228.781 113.01C229.204 112.808 229.688 112.828 230.091 113.071L244.28 121.315C244.663 121.538 244.704 121.883 244.381 122.065Z" fill="#7E9DAA"/>
</g>
<g opacity="0.4">
<path opacity="0.4" d="M241.459 124.597C241.035 124.799 240.552 124.779 240.149 124.536L225.294 115.866C224.911 115.644 224.851 115.299 225.193 115.117C225.617 114.935 226.1 114.955 226.504 115.178L241.338 123.847C241.741 124.05 241.781 124.394 241.459 124.597Z" fill="#7E9DAA"/>
</g>
<g opacity="0.4">
<path opacity="0.4" d="M241.156 128.608C240.733 128.79 240.249 128.77 239.846 128.547L221.666 117.993C221.283 117.771 221.223 117.426 221.566 117.244C221.989 117.062 222.472 117.082 222.876 117.305L241.055 127.858C241.438 128.081 241.479 128.425 241.156 128.608Z" fill="#7E9DAA"/>
</g>
<g opacity="0.4">
<path opacity="0.4" d="M237.528 130.735C237.105 130.917 236.621 130.897 236.218 130.674L218.038 120.12C217.655 119.897 217.595 119.553 217.938 119.371C218.361 119.168 218.845 119.188 219.248 119.432L237.448 129.985C237.811 130.208 237.871 130.532 237.528 130.735Z" fill="#7E9DAA"/>
</g>
<g opacity="0.4">
<path opacity="0.4" d="M233.88 132.821C233.457 133.024 232.973 133.003 232.57 132.76L214.411 122.207C214.028 121.984 213.967 121.639 214.31 121.457C214.733 121.255 215.217 121.275 215.62 121.518L233.8 132.071C234.162 132.294 234.223 132.639 233.88 132.821Z" fill="#7E9DAA"/>
</g>
<g opacity="0.4">
<path opacity="0.4" d="M230.252 134.928C229.829 135.13 229.345 135.11 228.942 134.867L210.762 124.313C210.379 124.091 210.319 123.746 210.662 123.564C211.085 123.361 211.569 123.382 211.972 123.625L230.172 134.198C230.555 134.401 230.595 134.725 230.252 134.928Z" fill="#7E9DAA"/>
</g>
</g>
</g>
<path opacity="0.17" d="M264.597 128.243L262.561 117.527L258.631 121.538C256.998 121.802 255.406 122.328 253.935 123.118C249.742 125.427 249.218 129.053 252.746 131.221C254.076 131.991 255.567 132.456 257.079 132.639L264.617 128.284L264.597 128.243Z" fill="#7E9DAA"/>
<path opacity="0.4" d="M212.899 98.1421L163.599 126.764L196.654 147L245.59 117.122L212.899 98.1421Z" fill="#7E9DAA"/>
<path d="M212.697 95.7113L158.137 127.372L192.582 147.345L247.142 115.684L212.697 95.7113Z" fill="url(#paint12_linear)"/>
<path d="M262.259 115.866L264.597 128.284L257.341 119.249L262.259 115.866Z" fill="#CDEBFF"/>
<path opacity="0.21" d="M236.238 115.907C235.815 116.109 235.332 116.089 234.928 115.846L228.136 111.815C227.753 111.592 227.693 111.248 228.035 111.066C228.459 110.863 228.942 110.883 229.345 111.126L236.138 115.157C236.521 115.38 236.561 115.725 236.238 115.907Z" fill="#7E9DAA"/>
<path opacity="0.21" d="M233.78 117.386C233.356 117.568 232.873 117.548 232.469 117.325L225.677 113.294C225.294 113.071 225.234 112.747 225.576 112.544C226 112.362 226.483 112.382 226.887 112.605L233.679 116.636C234.062 116.859 234.102 117.203 233.78 117.386Z" fill="#7E9DAA"/>
<path opacity="0.21" d="M231.139 118.925C230.716 119.128 230.232 119.107 229.829 118.864L225.677 116.332C225.294 116.11 225.234 115.765 225.576 115.583C226 115.401 226.483 115.421 226.886 115.644L231.038 118.176C231.421 118.398 231.462 118.723 231.139 118.925Z" fill="#7E9DAA"/>
<path opacity="0.2" d="M223.541 94.8403L223.158 94.6783L223.057 94.6378L222.654 94.4757L222.573 94.4555L222.13 94.3137H222.069L221.606 94.1719H221.566L221.062 94.0301L220.538 93.9086C216.507 93.0375 211.71 93.4224 208.041 95.1644C197.581 100.087 195.525 106.852 195.122 109.324C195.021 109.871 195.706 110.357 196.654 110.397C197.52 110.458 198.669 110.498 200.06 110.498H201.551H201.914H202.237H202.6H202.982H203.325L203.91 110.458H204.232L204.796 110.417H205.099L205.582 110.377L205.925 110.336L206.389 110.296L206.731 110.255L207.215 110.215L207.558 110.174L208.082 110.114L208.404 110.073L209.029 109.992L209.251 109.952L210.117 109.83L210.299 109.79L211.004 109.668L211.307 109.607L211.891 109.506L212.234 109.445L212.798 109.324L213.161 109.243L213.725 109.121L214.068 109.04L214.672 108.898L214.975 108.817L215.761 108.615L215.902 108.574L216.829 108.311L217.071 108.23L217.756 108.027L218.099 107.926L218.703 107.744L219.066 107.622L219.631 107.42L219.993 107.278L220.578 107.055L220.921 106.913L221.545 106.67L221.848 106.548C222.15 106.427 222.452 106.285 222.755 106.143C223.057 106.002 223.44 105.819 223.762 105.637C224.367 105.313 224.931 104.928 225.476 104.503C228.519 102.052 228.902 98.8308 225.979 96.3798L229.769 94.5973C230.535 94.2326 230.676 93.6047 230.071 93.1793C229.305 92.7539 228.398 92.7134 227.612 93.078L223.621 94.8201H223.581L223.541 94.8403Z" fill="#969696"/>
<path d="M229.023 73.7129C228.096 73.7129 227.35 74.4624 227.35 75.3942V81.0052L224.105 78.7163C223.5 78.2301 222.614 78.3516 222.13 78.9593C221.646 79.567 221.767 80.4583 222.372 80.9445C222.412 80.9647 222.432 81.0052 222.472 81.0255L227.068 84.2665C227.148 84.3273 227.249 84.3678 227.33 84.4083V92.9767C227.29 93.9085 227.995 94.6985 228.902 94.7391C229.829 94.7796 230.615 94.0706 230.655 93.1591C230.655 93.0983 230.655 93.0375 230.655 92.997V75.4347C230.696 74.4624 229.95 73.7129 229.023 73.7129Z" fill="#102525"/>
<path d="M227.108 52.6666C224.186 55.4417 216.829 63.6658 216.567 75.9411C216.426 82.6865 221.666 88.4393 228.358 88.3988C234.807 88.3583 240.008 83.0916 240.008 76.6096C240.008 63.9494 232.449 55.5024 229.466 52.6666C228.821 52.0589 227.793 52.0589 227.108 52.6666Z" fill="#EF4444"/>
<path d="M163.599 45.4553H104.706C104.706 45.4553 105.875 35.5904 114.078 35.5094C119.198 35.4689 121.415 38.9935 121.415 38.9935C121.415 38.9935 122.946 26.4346 135.261 26.3738C143.404 26.3333 146.004 38.7099 146.004 38.7099C146.004 38.7099 160.556 32.6127 163.599 45.4553Z" fill="url(#paint13_linear)"/>
<path d="M163.599 45.4553H104.706C104.706 45.4553 105.875 35.5904 114.078 35.5094C119.198 35.4689 121.415 38.9935 121.415 38.9935C121.415 38.9935 122.946 26.4346 135.261 26.3738C143.404 26.3333 146.004 38.7099 146.004 38.7099C146.004 38.7099 160.556 32.6127 163.599 45.4553Z" fill="url(#paint14_linear)"/>
<path d="M92 64H55C55 64 55.7344 57.7962 60.8881 57.7453C64.1044 57.7198 65.4973 59.9363 65.4973 59.9363C65.4973 59.9363 66.4596 52.0383 74.1964 52.0001C79.3121 51.9746 80.9456 59.758 80.9456 59.758C80.9456 59.758 90.088 55.9236 92 64Z" fill="url(#paint15_linear)"/>
<path opacity="0.45" d="M162.632 208.398L163.136 208.114L153.26 201.632L152.716 201.956L155.517 203.799L150.982 205.987L148.685 204.285L148.221 204.569L157.13 211.618L157.633 211.335L155.074 209.35L160.173 206.838L162.632 208.398ZM154.691 208.965L151.446 206.331L156.021 204.123L159.709 206.534L154.691 208.965Z" fill="#7E9DAA"/>
<path opacity="0.3" d="M198.931 149.411L179.562 160.167L159.004 147.669L174.14 139.364" fill="#969696"/>
<path opacity="0.3" d="M176.68 158.526L171.601 161.686C166.018 164.826 159.165 164.705 153.683 161.382C149.934 159.114 148.745 154.212 151.002 150.464C151.728 149.269 152.736 148.297 153.945 147.628L156.525 146.048" fill="#969696"/>
<path opacity="0.3" d="M85.6593 214.292C85.9012 213.948 86.1229 213.603 86.3648 213.198C88.8035 209.005 86.6268 205.582 81.4872 205.541C76.3477 205.501 73.4856 206.554 71.0469 210.747C70.3414 211.841 69.9988 213.117 70.0593 214.414C67.6608 214.717 65.0809 216.277 63.9724 218.161C62.743 220.288 63.7507 222.374 66.3306 222.374C68.9104 222.374 72.2159 221.2 73.4453 219.093C73.4856 219.052 73.5058 218.992 73.526 218.951C74.3322 219.174 75.1787 219.295 76.005 219.295C76.912 219.295 77.7988 219.275 78.7058 219.174C79.4717 220.491 81.588 221.382 84.4299 221.382C87.8966 221.382 90.8795 219.133 90.8795 217.391C90.8997 215.811 88.6423 214.535 85.6593 214.292Z" fill="#969696"/>
<path d="M79.4717 217.108C85.2378 217.108 89.9121 212.782 89.9121 207.445C89.9121 202.109 85.2378 197.783 79.4717 197.783C73.7057 197.783 69.0314 202.109 69.0314 207.445C69.0314 212.782 73.7057 217.108 79.4717 217.108Z" fill="#EF4444"/>
<g style="mix-blend-mode:multiply" opacity="0.7">
<path d="M84.6314 212.044C84.4097 212.044 84.188 212.044 83.9663 212.003L87.05 210.403C84.8733 210.018 82.6361 210.646 81.0035 212.145C78.4438 210.808 76.2671 207.182 76.2671 204.265C76.2872 202.078 77.2547 199.991 78.9477 198.593C73.9089 198.837 69.898 202.705 69.898 207.425C69.898 212.307 74.1709 216.257 79.4516 216.257C82.9787 216.318 86.264 214.434 88.0175 211.355C86.909 211.821 85.7803 212.044 84.6314 212.044Z" fill="url(#paint16_linear)"/>
</g>
<path d="M87.8764 219.133C90.7261 219.133 93.0362 217.12 93.0362 214.636C93.0362 212.153 90.7261 210.14 87.8764 210.14C85.0268 210.14 82.7167 212.153 82.7167 214.636C82.7167 217.12 85.0268 219.133 87.8764 219.133Z" fill="#EF4444"/>
<g style="mix-blend-mode:multiply" opacity="0.7">
<path d="M89.9524 216.196C88.0377 216.196 86.4857 214.839 86.4857 213.178C86.5059 212.206 87.0299 211.294 87.8563 210.788C85.4175 210.788 83.4423 212.51 83.4423 214.636C83.4423 216.763 85.4175 218.485 87.8563 218.485C89.9524 218.485 91.7059 217.209 92.1695 215.508C91.5245 215.953 90.7385 216.196 89.9524 216.196Z" fill="url(#paint17_linear)"/>
</g>
<path d="M70.019 219.417C72.2564 219.417 74.0701 217.839 74.0701 215.892C74.0701 213.946 72.2564 212.368 70.019 212.368C67.7816 212.368 65.9678 213.946 65.9678 215.892C65.9678 217.839 67.7816 219.417 70.019 219.417Z" fill="#EF4444"/>
<g style="mix-blend-mode:multiply" opacity="0.7">
<path d="M71.9136 217.007C70.3012 217.007 68.9911 215.872 68.9911 214.454C68.9911 213.887 69.2128 213.34 69.5957 212.915C67.8825 213.097 66.5523 214.373 66.5523 215.892C66.5523 217.553 68.1042 218.911 70.019 218.911C71.4903 218.971 72.8407 218.08 73.3647 216.682C72.9012 216.885 72.4174 217.007 71.9136 217.007Z" fill="url(#paint18_linear)"/>
</g>
<path d="M174.161 114.043V142.463C174.161 147.426 180.953 151.437 189.358 151.437C197.762 151.437 204.555 147.426 204.555 142.463V114.043H174.161Z" fill="#EF4444"/>
<path d="M198.488 149.614C199.334 149.229 200.141 148.783 200.907 148.256V114.043H198.488V149.614Z" fill="#FF9FA8"/>
<path d="M195.102 150.788L196.331 150.424V116.393H195.102V150.788Z" fill="#FF9FA8"/>
<g style="mix-blend-mode:multiply">
<path d="M191.111 122.45L190.103 122.004L177.063 114.043H174.161V114.388L174.544 114.631L175.551 115.076C175.551 115.076 175.612 141.673 175.733 146.454C176.216 147.021 176.761 147.527 177.345 147.973C178.474 148.803 179.723 149.492 181.054 149.978H181.094C181.316 150.059 181.537 150.14 181.759 150.221L181.84 150.241C182.061 150.323 182.283 150.383 182.505 150.444L182.585 150.464C183.351 150.687 184.117 150.869 184.903 151.011L185.085 151.052L185.689 151.153L185.951 151.194C186.133 151.214 186.314 151.234 186.496 151.254L186.798 151.295L187.342 151.335L187.644 151.356L188.209 151.396H188.471C188.753 151.396 189.035 151.396 189.337 151.396C189.64 151.396 189.982 151.396 190.305 151.396H190.426L191.353 151.335C191.192 150.869 191.111 122.45 191.111 122.45Z" fill="url(#paint19_linear)"/>
</g>
<path d="M207.316 139.364H204.514V135.738H207.316C209.634 135.738 211.085 133.834 211.085 131.504V123.442C211.085 121.113 209.634 119.209 207.316 119.209H204.514V115.583H207.316C211.387 115.583 214.693 118.905 214.693 122.997V131.93C214.693 136.062 211.387 139.364 207.316 139.364Z" fill="#EF4444"/>
<g style="mix-blend-mode:multiply">
<path d="M207.316 139.364H204.514V135.738H207.316C209.634 135.738 211.085 133.834 211.085 131.504V123.442C211.085 121.113 209.634 119.209 207.316 119.209H204.514V115.583H207.316C211.387 115.583 214.693 118.905 214.693 122.997V131.93C214.693 136.062 211.387 139.364 207.316 139.364Z" fill="url(#paint20_linear)"/>
</g>
<path d="M189.337 123.017C197.719 123.017 204.514 118.999 204.514 114.043C204.514 109.087 197.719 105.07 189.337 105.07C180.956 105.07 174.161 109.087 174.161 114.043C174.161 118.999 180.956 123.017 189.337 123.017Z" fill="#EF4444"/>
<path d="M189.337 121.417C196.606 121.417 202.499 118.115 202.499 114.043C202.499 109.971 196.606 106.67 189.337 106.67C182.069 106.67 176.176 109.971 176.176 114.043C176.176 118.115 182.069 121.417 189.337 121.417Z" fill="#EF4444"/>
<g style="mix-blend-mode:multiply">
<path d="M189.332 121.413C196.601 121.413 202.493 118.112 202.493 114.04C202.493 109.968 196.601 106.667 189.332 106.667C182.063 106.667 176.171 109.968 176.171 114.04C176.171 118.112 182.063 121.413 189.332 121.413Z" fill="url(#paint21_linear)"/>
</g>
<path d="M189.337 113.01C184.077 113.01 179.502 114.55 177.144 116.839C179.099 119.533 183.815 121.437 189.337 121.437C194.86 121.437 199.576 119.533 201.531 116.839C199.153 114.55 194.578 113.01 189.337 113.01Z" fill="#D8A573"/>
<path d="M189.337 113.01C184.077 113.01 179.502 114.55 177.144 116.839C179.099 119.533 183.815 121.437 189.337 121.437C194.86 121.437 199.576 119.533 201.531 116.839C199.153 114.55 194.578 113.01 189.337 113.01Z" fill="#D8A573"/>
<path d="M149.35 122.267L163.579 114.165L161.584 111.673L160.173 115.927L158.117 113.861L156.464 117.852L154.449 115.907L152.877 119.958L150.781 118.135L149.35 122.267Z" fill="#EF4444"/>
<path d="M206.066 169.647L219.49 177.446L218.724 173.334L216.164 174.448L215.7 171.025L212.717 172.564L212.072 169.1L209.432 170.68L209.009 168.027L206.066 169.647Z" fill="#EF4444"/>
<path d="M270.361 114.59C277.029 114.59 282.434 109.158 282.434 102.457C282.434 95.7555 277.029 90.3232 270.361 90.3232C263.693 90.3232 258.288 95.7555 258.288 102.457C258.288 109.158 263.693 114.59 270.361 114.59Z" fill="#EF4444"/>
<path d="M271.449 99.6208C270.522 99.6208 269.777 100.37 269.777 101.302V106.913L266.532 104.624C265.927 104.138 265.04 104.26 264.556 104.867C264.073 105.475 264.194 106.366 264.798 106.852C264.839 106.873 264.859 106.913 264.899 106.933L269.494 110.174C269.575 110.235 269.676 110.276 269.777 110.316V118.885C269.777 119.816 270.522 120.566 271.429 120.566C272.356 120.566 273.102 119.816 273.102 118.905V101.343C273.122 100.37 272.377 99.6208 271.449 99.6208Z" fill="#102525"/>
<path d="M181.799 131.282C181.658 131.221 181.497 131.261 181.437 131.403L180.026 134.117L175.35 131.626L176.962 129.053C177.043 128.932 177.002 128.749 176.882 128.668C176.761 128.587 176.599 128.628 176.519 128.749L159.971 155.184C159.891 155.306 159.931 155.468 160.052 155.549C160.092 155.569 160.153 155.589 160.193 155.589C160.294 155.589 160.374 155.549 160.415 155.468L162.43 152.227L168.598 156.116L166.804 159.6C166.744 159.742 166.784 159.904 166.925 159.965C166.965 159.985 167.006 159.985 167.046 160.005C167.147 160.005 167.247 159.944 167.288 159.863L180.389 134.624L181.92 131.666C182.001 131.545 181.961 131.383 181.84 131.302C181.84 131.282 181.82 131.282 181.799 131.282ZM179.784 134.604L177.869 138.29L172.992 135.414L175.068 132.112L179.784 134.604ZM175.672 142.504L170.553 139.323L172.73 135.839L177.627 138.756L175.672 142.504ZM173.516 146.737L168.013 143.395L170.271 139.789L175.451 142.99L173.516 146.737ZM171.238 151.133L165.433 147.527L167.731 143.84L173.274 147.203L171.238 151.133ZM162.733 151.801L165.111 148.013L170.996 151.639L168.9 155.65L162.733 151.801Z" fill="#535B6B"/>
<path opacity="0.45" d="M154.449 196.892L153.36 199.627L149.712 201.753L150.902 198.938L150.297 199.282L149.088 202.118L149.067 202.138V202.159L148.201 204.204L148.846 203.82L149.471 202.341L153.139 200.214L152.554 201.672L153.159 201.328L155.033 196.568L154.449 196.892Z" fill="#7E9DAA"/>
<path d="M157.633 211.314L156.122 208.398L160.838 205.602L162.632 208.418L163.136 208.134L156.343 197.52L154.63 194.866C154.55 194.745 154.368 194.725 154.247 194.806C154.126 194.887 154.086 195.049 154.147 195.19L155.719 197.641L151.688 200.052L150.579 197.722C150.498 197.601 150.337 197.56 150.216 197.641C150.075 197.722 150.035 197.885 150.095 198.026L157.17 211.659L157.633 211.314ZM151.929 200.477L156.001 198.047L158.117 201.369L153.784 203.941L151.929 200.477ZM154.026 204.407L158.399 201.794L160.576 205.157L155.9 207.932L154.026 204.407Z" fill="#535B6B"/>
<path opacity="0.4" d="M170.916 198.674H170.895L170.795 198.634H170.775C170.734 198.614 170.714 198.614 170.674 198.593L170.573 198.553L170.452 198.512L170.331 198.472L170.19 198.431C169.122 198.209 167.993 198.31 166.985 198.755C164.305 200.011 163.781 201.733 163.68 202.381C163.68 202.523 163.841 202.645 164.083 202.665C164.325 202.685 164.607 202.685 164.95 202.685H166.018H166.159H166.24H166.361H166.441H166.562H166.643H166.764H166.844H166.985H167.066H167.227H167.288L167.509 202.645H167.55L167.731 202.624H167.812L167.973 202.584H168.054L168.195 202.543H168.295L168.376 202.26L168.457 202.24L168.618 202.199L168.699 202.179L168.9 202.138H168.94L169.182 202.078H169.243L169.424 202.017L169.505 201.997L169.666 201.956L169.767 201.915L169.908 201.875L170.009 201.834L170.15 201.774L170.251 201.733L170.412 201.672L170.492 201.632L170.734 201.531C170.815 201.49 170.916 201.45 170.996 201.409C171.157 201.328 171.299 201.227 171.44 201.125C172.226 200.498 172.306 199.667 171.561 199.039" fill="#7E9DAA"/>
<path d="M169.706 190.592C168.074 192.152 167.106 194.279 167.006 196.548C166.925 198.229 168.235 199.667 169.908 199.728C169.948 199.728 169.988 199.728 170.009 199.728C171.661 199.708 172.992 198.371 172.992 196.71C172.951 194.4 171.964 192.192 170.291 190.592C170.15 190.43 169.888 190.43 169.706 190.592Z" fill="#EF4444"/>
<g style="mix-blend-mode:multiply" opacity="0.7">
<path d="M171.561 197.378C169.888 197.358 168.537 195.98 168.537 194.299C168.537 194.259 168.537 194.238 168.537 194.198C168.557 193.124 168.799 192.071 169.243 191.078C167.872 192.577 167.086 194.502 167.026 196.548C166.945 198.229 168.255 199.667 169.928 199.728C169.968 199.728 170.009 199.728 170.029 199.728C171.561 199.708 172.851 198.533 172.992 196.993C172.568 197.236 172.064 197.378 171.561 197.378Z" fill="url(#paint22_linear)"/>
</g>
<path opacity="0.3" d="M273.969 81.4103H273.949L273.848 81.3698H273.828L273.727 81.3293L273.606 81.2888L273.485 81.2483L273.364 81.2078L273.223 81.1672C272.155 80.9444 271.046 81.0457 270.039 81.4913C267.358 82.7473 266.834 84.4893 266.733 85.1173C266.733 85.2591 266.874 85.3806 267.136 85.4009C267.398 85.4211 267.66 85.4009 268.003 85.4009H268.829H268.991H269.071H269.212H269.293H269.414H269.494H269.615H269.696H269.817H269.898H270.018H270.099L270.26 85.3806H270.321L270.543 85.3401H270.583L270.764 85.3198H270.845L270.986 85.2996H271.087L271.228 85.2793H271.329L271.47 85.2388H271.57L271.732 85.1983H271.812L272.014 85.1578H272.054L272.296 85.097H272.357L272.518 85.0362L272.598 85.016L272.76 84.9755L272.86 84.935L273.001 84.8944L273.102 84.8539L273.243 84.7932L273.324 84.7527L273.485 84.6919L273.566 84.6514L273.808 84.5501C273.888 84.5096 273.989 84.4691 274.07 84.4285C274.231 84.3475 274.372 84.2462 274.513 84.145C275.299 83.517 275.38 82.6865 274.634 82.0585" fill="#969696"/>
<path d="M273.263 74.0775C271.631 75.6373 270.663 77.7642 270.563 80.0329C270.482 81.7142 271.792 83.1524 273.465 83.2132C273.505 83.2132 273.546 83.2132 273.566 83.2132C275.218 83.1929 276.549 81.856 276.549 80.195C276.508 77.8857 275.541 75.6778 273.848 74.0775C273.687 73.9155 273.425 73.9155 273.263 74.0775Z" fill="#EF4444"/>
<path opacity="0.3" d="M262.662 87.9734H262.622L262.521 87.9329L262.42 87.8924H262.4L262.299 87.8519L262.178 87.8113L262.057 87.7708L261.916 87.7303C260.848 87.5075 259.719 87.6088 258.711 88.0544C256.031 89.3103 255.507 91.0524 255.406 91.6803C255.386 91.8221 255.547 91.9437 255.789 91.9639C256.031 91.9842 256.313 91.9842 256.656 91.9842H257.482H257.623H257.704H257.845H257.925H258.046H258.127H258.248H258.328H258.449H258.53H258.671H258.752H258.913H258.973L259.195 91.9437H259.235L259.417 91.9032H259.498L259.659 91.8829H259.739L259.88 91.8627L259.981 91.8424L260.122 91.8019H260.203L260.364 91.7614H260.445L260.646 91.7006H260.687L260.848 91.3765H260.908L261.09 91.3157L261.17 91.2955L261.332 91.2347L261.432 91.1942L261.574 91.1334L261.674 91.0929L261.815 91.0321L261.916 90.9916L262.077 90.9309L262.158 90.8903L262.4 90.7891L262.662 90.6675C262.823 90.5865 262.964 90.4852 263.105 90.3839C263.891 89.756 263.972 88.9255 263.226 88.2975" fill="#969696"/>
<path d="M262.017 80.1544C260.384 81.7142 259.417 83.8411 259.316 86.1098C259.235 87.7911 260.546 89.2293 262.218 89.2901C262.259 89.2901 262.299 89.2901 262.319 89.2901C263.972 89.2901 265.302 87.9329 265.302 86.2719C265.262 83.9626 264.294 81.7547 262.601 80.1544C262.46 80.0126 262.198 79.9924 262.017 80.1544Z" fill="#EF4444"/>
<path opacity="0.25" d="M181.475 173.958C183.177 173.749 184.461 172.797 184.344 171.831C184.227 170.864 182.752 170.25 181.051 170.459C179.349 170.667 178.064 171.619 178.182 172.586C178.299 173.552 179.773 174.166 181.475 173.958Z" fill="#7E9DAA"/>
<path opacity="0.25" d="M118.297 208.64C119.756 208.462 120.856 207.642 120.755 206.809C120.654 205.976 119.39 205.445 117.931 205.624C116.473 205.803 115.372 206.623 115.473 207.456C115.574 208.289 116.838 208.819 118.297 208.64Z" fill="#7E9DAA"/>
<path opacity="0.25" d="M175.423 177.73C176.428 177.607 177.187 177.039 177.117 176.461C177.047 175.884 176.175 175.516 175.169 175.639C174.163 175.762 173.405 176.33 173.475 176.907C173.545 177.485 174.417 177.853 175.423 177.73Z" fill="#7E9DAA"/>
<path opacity="0.64" d="M182.102 120.222L181.84 118.966C181.195 118.905 180.53 118.966 179.905 119.168C180.61 119.594 181.336 119.958 182.102 120.222Z" fill="#B27742"/>
<path d="M180.006 221.524C180.384 221.524 180.691 220.481 180.691 219.194C180.691 217.908 180.384 216.865 180.006 216.865C179.627 216.865 179.32 217.908 179.32 219.194C179.32 220.481 179.627 221.524 180.006 221.524Z" fill="#EF4444"/>
<path d="M182.237 220.186C182.764 219.304 182.983 218.463 182.725 218.307C182.467 218.151 181.831 218.741 181.304 219.623C180.777 220.505 180.558 221.347 180.816 221.502C181.073 221.658 181.71 221.069 182.237 220.186Z" fill="#EF4444"/>
<path d="M179.152 221.547C179.41 221.392 179.191 220.55 178.664 219.668C178.137 218.786 177.5 218.196 177.243 218.352C176.985 218.508 177.204 219.349 177.731 220.231C178.258 221.114 178.895 221.703 179.152 221.547Z" fill="#EF4444"/>
<path opacity="0.75" d="M191.272 113.071C191.696 113.456 192.079 113.861 192.441 114.307L188.189 114.692C188.189 114.692 186.435 115.34 187.221 116.211C188.007 117.082 191.474 116.292 191.474 116.292C192.199 116.13 192.965 116.089 193.711 116.17C194.517 117.568 194.799 119.229 194.517 120.809C197.702 120.039 200.241 118.601 201.531 116.798C199.455 114.833 195.706 113.395 191.272 113.071Z" fill="#B27742"/>
<path d="M188.612 115.583C188.612 115.583 187.644 114.165 188.612 113.112C189.579 112.038 190.829 110.863 190.829 110.863C190.829 110.863 192.683 109.708 194.336 111.856C195.989 114.003 195.182 114.833 195.182 114.833L194.638 115.502C192.623 115.299 190.607 115.34 188.612 115.583Z" fill="#CDEBFF"/>
<path opacity="0.25" d="M188.995 113.071C188.572 113.213 188.269 113.577 188.209 114.023C188.189 114.57 188.33 115.117 188.652 115.583C189.922 115.401 191.232 115.32 192.522 115.36C192.502 115.38 191.071 112.281 188.995 113.071Z" fill="#7E9DAA"/>
<path opacity="0.41" d="M194.336 111.856C192.683 109.708 190.829 110.863 190.829 110.863C191.917 111.451 193.389 112.666 193.268 115.38C194.013 115.421 194.517 115.461 194.618 115.482H194.638L195.182 114.813C195.182 114.813 195.223 114.752 195.283 114.651C195.444 114.327 195.565 113.456 194.336 111.856Z" fill="#7E9DAA"/>
<path opacity="0.64" d="M194.759 120.789L191.837 119.594C190.728 119.573 189.761 120.343 189.539 121.437C191.292 121.417 193.046 121.194 194.759 120.789Z" fill="#B27742"/>
<path d="M185.992 117.689L182.646 117.568C182.565 117.568 182.485 117.588 182.424 117.649C181.719 118.196 181.356 119.087 181.457 119.978C183.069 120.667 184.782 121.093 186.536 121.255C187.564 119.026 185.992 117.689 185.992 117.689Z" fill="#CDEBFF"/>
<path opacity="0.25" d="M185.992 117.689L182.646 117.568C182.565 117.568 182.485 117.588 182.424 117.649C181.719 118.196 181.356 119.087 181.457 119.978C183.069 120.667 184.782 121.093 186.536 121.255C187.564 119.026 185.992 117.689 185.992 117.689Z" fill="#7E9DAA"/>
<path d="M185.75 117.69L182.827 117.588C182.666 117.993 182.424 119.006 183.432 120.687C184.44 120.971 185.468 121.153 186.516 121.255C187.1 120.161 186.959 118.824 186.173 117.872C186.072 117.75 185.911 117.69 185.75 117.69Z" fill="#CDEBFF"/>
<path d="M193.933 117.041C192.723 117.041 192.199 117.527 191.998 117.872C191.897 118.034 191.837 118.216 191.857 118.419V121.315C193.429 121.153 194.981 120.809 196.452 120.282V118.277C196.452 118.176 196.412 118.074 196.351 117.993C196.11 117.69 195.384 117.041 193.933 117.041Z" fill="#CDEBFF"/>
<path opacity="0.25" d="M191.837 121.295C193.308 121.133 194.759 120.829 196.17 120.363C195.545 119.897 194.799 119.634 194.034 119.654C191.937 119.654 191.857 120.809 191.857 120.971L191.837 121.295Z" fill="#7E9DAA"/>
<path opacity="0.41" d="M194.759 117.122C195.364 118.277 195.324 119.675 194.679 120.789C195.303 120.627 195.888 120.465 196.452 120.262V118.257C196.452 118.155 196.412 118.054 196.351 117.973C195.928 117.507 195.364 117.203 194.759 117.122Z" fill="#7E9DAA"/>
<path opacity="0.3" d="M256.454 153.604L257.623 152.956L253.249 152.247L255.487 151.011L243.676 144.387L223.682 156.096L234.908 162.355L238.576 160.329L243.132 161.018L244.3 160.37L239.866 159.62L251.959 152.956L256.454 153.604Z" fill="#969696"/>
<path d="M243.514 160.896C243.071 160.917 242.688 160.572 242.668 160.127C242.668 160.106 242.668 160.106 242.668 160.086V154.171C242.668 153.888 242.829 153.604 243.071 153.462C243.454 153.239 243.938 153.361 244.18 153.746C244.26 153.867 244.28 154.009 244.28 154.151V160.066C244.28 160.532 243.938 160.896 243.514 160.896Z" fill="#9BB8CC"/>
<path d="M256.656 153.401C256.212 153.422 255.829 153.077 255.809 152.632C255.809 152.611 255.809 152.611 255.809 152.591V146.676C255.809 146.393 255.97 146.129 256.212 145.967C256.595 145.745 257.099 145.907 257.301 146.291C257.361 146.413 257.401 146.535 257.401 146.676V152.591C257.422 153.017 257.079 153.381 256.656 153.401Z" fill="#9BB8CC"/>
<path d="M260.324 145.42L238.899 159.053L238.012 158.607C237.851 158.547 237.73 158.385 237.73 158.202V145.785C237.73 145.623 237.811 145.481 237.952 145.4L260.384 132.396C260.465 132.335 260.566 132.335 260.667 132.335L261.775 132.517L260.546 145.076C260.525 145.218 260.445 145.339 260.324 145.42Z" fill="#3C4656"/>
<path d="M261.493 145.785L239.262 158.688C239.161 158.749 239.04 158.709 238.98 158.628C238.959 158.587 238.939 158.547 238.939 158.506V146.15C238.939 145.988 239.02 145.846 239.161 145.765L260.485 133.388L261.513 132.801C261.573 132.76 261.674 132.781 261.715 132.841C261.735 132.862 261.735 132.882 261.735 132.922V145.4C261.715 145.583 261.634 145.724 261.493 145.785Z" fill="#535B6B"/>
<path d="M245.087 150.829C244.945 150.991 244.784 151.153 244.603 151.295C244.462 151.416 244.28 151.538 244.119 151.639C243.897 151.781 243.656 151.862 243.414 151.882C243.232 151.902 243.031 151.842 242.89 151.72C242.728 151.558 242.607 151.356 242.567 151.133C242.487 150.809 242.446 150.464 242.466 150.12C242.466 149.715 242.507 149.33 242.587 148.925C242.668 148.56 242.769 148.216 242.93 147.892C243.071 147.588 243.252 147.325 243.474 147.061C243.676 146.818 243.918 146.636 244.2 146.474L244.442 146.352C244.522 146.312 244.583 146.292 244.663 146.251L244.885 146.19C244.966 146.17 245.046 146.15 245.107 146.15V147.082C244.945 147.082 244.804 147.082 244.643 147.122C244.3 147.203 243.998 147.406 243.776 147.669C243.656 147.831 243.535 148.013 243.454 148.216C243.373 148.418 243.313 148.641 243.273 148.864C243.232 149.107 243.212 149.35 243.212 149.593C243.212 149.816 243.232 150.059 243.273 150.282C243.293 150.444 243.353 150.586 243.454 150.728C243.535 150.829 243.635 150.89 243.776 150.89C243.938 150.89 244.079 150.829 244.22 150.748C244.3 150.707 244.361 150.667 244.421 150.606C244.502 150.545 244.562 150.485 244.643 150.424C244.724 150.363 244.784 150.282 244.865 150.201C244.945 150.12 245.006 150.039 245.066 149.978L245.087 150.829Z" fill="#F2F2F2"/>
<path d="M248.553 146.514C248.553 146.94 248.513 147.345 248.432 147.75C248.372 148.094 248.251 148.439 248.11 148.743C247.989 149.006 247.828 149.269 247.626 149.492C247.445 149.695 247.243 149.857 247.021 149.998C246.538 150.282 246.155 150.282 245.913 149.998C245.671 149.715 245.55 149.127 245.55 148.317C245.55 147.892 245.59 147.487 245.671 147.082C245.732 146.737 245.852 146.413 245.994 146.089C246.115 145.826 246.276 145.562 246.477 145.339C246.639 145.137 246.84 144.975 247.082 144.833C247.586 144.549 247.949 144.549 248.19 144.833C248.432 145.117 248.553 145.684 248.553 146.514ZM247.808 147.001C247.828 146.595 247.787 146.17 247.626 145.785C247.505 145.562 247.324 145.522 247.042 145.684C246.901 145.765 246.78 145.866 246.699 145.988C246.598 146.129 246.518 146.292 246.457 146.454C246.397 146.656 246.336 146.859 246.316 147.061C246.276 147.304 246.276 147.568 246.276 147.811C246.235 148.216 246.296 148.641 246.457 149.026C246.578 149.249 246.78 149.289 247.042 149.127C247.183 149.046 247.304 148.945 247.384 148.824C247.485 148.682 247.566 148.52 247.626 148.358C247.687 148.155 247.727 147.953 247.767 147.75C247.787 147.507 247.808 147.244 247.808 147.001Z" fill="#F2F2F2"/>
<path d="M251.718 144.671C251.718 145.036 251.677 145.421 251.617 145.785C251.556 146.129 251.435 146.474 251.274 146.778C251.113 147.082 250.932 147.365 250.69 147.628C250.428 147.892 250.146 148.115 249.823 148.297L248.876 148.844V143.861L249.984 143.233C250.206 143.091 250.468 142.99 250.73 142.949C250.911 142.909 251.113 142.97 251.274 143.091C251.435 143.253 251.556 143.435 251.597 143.658C251.677 143.982 251.718 144.327 251.718 144.671ZM250.972 145.157C250.972 144.934 250.952 144.691 250.932 144.468C250.911 144.306 250.851 144.165 250.77 144.023C250.71 143.922 250.589 143.861 250.468 143.861C250.287 143.881 250.125 143.922 249.984 144.023L249.621 144.225V147.649L249.924 147.466C250.266 147.264 250.549 146.96 250.71 146.595C250.891 146.15 250.972 145.643 250.972 145.157Z" fill="#F2F2F2"/>
<path d="M252.383 146.818V141.835L254.62 140.539V141.329L253.088 142.2V143.435L254.539 142.605V143.375L253.088 144.225V145.603L254.62 144.732V145.522L252.383 146.818Z" fill="#F2F2F2"/>
<path d="M259.094 140.924L256.575 144.306L256.595 140.437L259.094 140.924Z" fill="#F2F2F2"/>
<path d="M138.788 111.977L64.2345 155.225V126.44C64.2345 125.934 64.4965 125.468 64.9197 125.225L136.853 82.3624C137.458 81.9978 138.244 82.2003 138.587 82.808C138.708 83.0106 138.768 83.2334 138.768 83.4562V111.977H138.788Z" fill="url(#paint23_linear)"/>
<path d="M105.915 125.853L99.768 129.418C99.1633 129.762 98.6997 129.398 98.6997 128.608C98.7199 127.777 99.1028 127.028 99.768 126.542L105.935 122.976C106.52 122.632 107.004 122.976 107.004 123.787C106.984 124.617 106.58 125.367 105.915 125.853Z" fill="#EF4444"/>
<path d="M114.683 110.438L89.0857 125.265C88.4811 125.61 88.0175 125.245 88.0175 124.455C88.0376 123.625 88.4206 122.875 89.0857 122.389L114.683 107.561C115.267 107.217 115.751 107.561 115.751 108.372C115.731 109.182 115.348 109.952 114.683 110.438Z" fill="#CDEBFF"/>
<path d="M109.241 118.095L94.5478 126.623C93.9431 126.967 93.4796 126.623 93.4796 125.812C93.4997 124.982 93.8827 124.232 94.5478 123.746L109.241 115.218C109.846 114.874 110.309 115.238 110.309 116.028C110.309 116.859 109.906 117.629 109.241 118.095Z" fill="#CDEBFF"/>
<path opacity="0.6" d="M80.802 120.141L75.8035 123.037C75.2996 123.341 74.8763 123.037 74.8763 122.328C74.8965 121.619 75.2391 120.971 75.8035 120.566L80.802 117.669C81.3059 117.365 81.7291 117.669 81.7291 118.358C81.7291 119.067 81.3865 119.715 80.802 120.141Z" fill="#102525"/>
<path opacity="0.6" d="M107.366 104.503L103.295 106.873C102.852 107.116 102.549 106.873 102.549 106.305C102.549 105.738 102.832 105.191 103.295 104.847L107.366 102.477C107.81 102.234 108.112 102.477 108.112 103.044C108.112 103.632 107.83 104.158 107.366 104.503Z" fill="#102525"/>
<path d="M94.2455 152.612L80.3384 160.674V149.208L94.2455 141.146V152.612ZM110.43 131.768L96.523 139.83V151.295L110.43 143.233V131.768ZM126.594 122.389L112.687 130.451V141.916L126.594 133.854V122.389Z" fill="url(#paint24_linear)"/>
<path opacity="0.54" d="M89.6702 158.445L80.9834 163.489C80.6407 163.692 80.3586 163.489 80.3586 163.023C80.3586 162.537 80.6004 162.091 80.9834 161.828L89.6702 156.784C90.0129 156.582 90.295 156.784 90.295 157.25C90.295 157.716 90.0532 158.162 89.6702 158.445ZM103.174 152.267C103.174 151.801 102.892 151.599 102.549 151.801L97.047 154.981C96.6641 155.265 96.4222 155.711 96.4222 156.177C96.4222 156.643 96.7044 156.865 97.047 156.663L102.549 153.483C102.932 153.199 103.174 152.753 103.174 152.267ZM106.48 147.851C106.48 147.385 106.197 147.183 105.855 147.385L97.1679 152.429C96.785 152.713 96.5431 153.158 96.5431 153.624C96.5431 154.09 96.8253 154.313 97.1679 154.11L105.855 149.067C106.238 148.783 106.459 148.337 106.48 147.851ZM87.2314 161.585C87.2314 161.139 86.9694 160.937 86.6268 161.119L81.326 164.198C80.943 164.461 80.7213 164.887 80.7213 165.353C80.7213 165.798 81.0035 166.001 81.326 165.819L86.6268 162.74C86.9896 162.476 87.2113 162.051 87.2314 161.585ZM122.644 138.452C122.644 137.986 122.362 137.784 122.019 137.986L113.332 143.01C112.949 143.294 112.708 143.739 112.708 144.205C112.708 144.671 112.99 144.894 113.332 144.691L122.019 139.647C122.402 139.384 122.624 138.938 122.644 138.452ZM119.46 142.868C119.46 142.402 119.177 142.179 118.835 142.382L113.332 145.583C112.949 145.866 112.708 146.312 112.708 146.798C112.708 147.264 112.99 147.466 113.332 147.264L118.835 144.063C119.218 143.8 119.46 143.354 119.46 142.868Z" fill="url(#paint25_linear)"/>
<path opacity="0.6" d="M114.461 100.391L110.39 102.761C109.946 103.004 109.644 102.761 109.644 102.193C109.644 101.626 109.926 101.079 110.39 100.735L114.461 98.3649C114.905 98.1219 115.207 98.3649 115.207 98.9321C115.207 99.5196 114.925 100.046 114.461 100.391Z" fill="#102525"/>
<path opacity="0.6" d="M121.556 96.2785L117.484 98.6485C117.041 98.8916 116.739 98.6485 116.739 98.0813C116.739 97.5142 117.021 96.9672 117.484 96.6229L121.556 94.2529C121.999 94.0098 122.301 94.2529 122.301 94.8201C122.301 95.4075 122.019 95.9342 121.556 96.2785Z" fill="#102525"/>
<path opacity="0.6" d="M128.63 92.1665L124.559 94.5365C124.115 94.7796 123.813 94.5365 123.813 93.9693C123.813 93.4021 124.095 92.8552 124.559 92.5109L128.63 90.1409C129.074 89.8978 129.376 90.1409 129.376 90.708C129.376 91.2955 129.094 91.8221 128.63 92.1665Z" fill="#102525"/>
<path d="M121.312 130.427C121.865 129.12 121.716 127.805 120.978 127.489C120.241 127.174 119.194 127.978 118.641 129.286C118.087 130.593 118.237 131.908 118.974 132.224C119.712 132.539 120.758 131.735 121.312 130.427Z" fill="#CDEBFF"/>
<path d="M105.009 139.92C105.562 138.612 105.413 137.297 104.675 136.982C103.938 136.666 102.891 137.47 102.338 138.778C101.784 140.085 101.934 141.401 102.671 141.716C103.409 142.031 104.455 141.227 105.009 139.92Z" fill="#CDEBFF"/>
<path d="M88.9291 149.319C89.4826 148.012 89.3334 146.697 88.5959 146.381C87.8584 146.066 86.8118 146.87 86.2584 148.177C85.7049 149.485 85.8541 150.8 86.5916 151.116C87.3291 151.431 88.3757 150.627 88.9291 149.319Z" fill="#CDEBFF"/>
<path opacity="0.33" d="M177.909 70.7352C177.909 70.7352 174.06 79.0201 180.953 88.5001C188.451 98.8308 187.12 107.035 183.009 115.947C183.009 115.947 193.227 105.313 190.325 94.1313C188.35 86.6162 178.675 82.9701 177.909 70.7352Z" fill="url(#paint26_linear)"/>
<path opacity="0.33" d="M189.922 85.0767C189.922 85.0767 180.429 79.0606 182.505 63.524C184.581 47.9873 178.595 43.3081 178.595 43.3081C178.595 43.3081 190.164 46.6099 187.503 61.4578C184.601 77.4603 189.922 85.0767 189.922 85.0767Z" fill="url(#paint27_linear)"/>
<path opacity="0.3" d="M71.3492 237.486L64.2344 241.699C63.9321 241.881 63.8313 242.266 64.0127 242.55C64.0732 242.651 64.1538 242.732 64.2344 242.773L87.3927 255.797C87.8966 256.081 88.5214 256.081 89.0253 255.797L92.8749 253.67L97.3493 255.98L109.503 249.315L79.3709 233.293L71.3492 237.486Z" fill="#969696"/>
<path d="M111.68 247.938L110.914 247.513L110.793 248.282L111.256 248.485L110.974 248.363L102.509 253.265V253.974V253.995L111.68 248.647V248.667V247.938Z" fill="url(#paint28_linear)"/>
<path d="M97.6114 242.651C98.1123 242.651 98.5184 242.461 98.5184 242.226C98.5184 241.991 98.1123 241.8 97.6114 241.8C97.1105 241.8 96.7044 241.991 96.7044 242.226C96.7044 242.461 97.1105 242.651 97.6114 242.651Z" fill="url(#paint29_linear)"/>
<path d="M104.585 249.113C104.645 249.153 104.666 249.234 104.645 249.295C104.625 249.315 104.625 249.336 104.585 249.356L103.517 249.943C103.476 249.964 103.436 249.964 103.396 249.943L101.602 248.89C101.542 248.849 101.521 248.768 101.562 248.708C101.582 248.687 101.582 248.667 101.602 248.667L102.67 248.08C102.711 248.059 102.771 248.059 102.791 248.08L104.585 249.113Z" fill="url(#paint30_linear)"/>
<path d="M104.504 246.945C104.444 246.905 104.424 246.824 104.444 246.763C104.464 246.743 104.484 246.723 104.504 246.702L105.552 246.115C105.593 246.095 105.653 246.095 105.694 246.115L107.487 247.189C107.548 247.229 107.568 247.31 107.548 247.371C107.528 247.391 107.508 247.411 107.487 247.432L106.419 248.019C106.379 248.039 106.339 248.039 106.298 248.019L104.504 246.945Z" fill="url(#paint31_linear)"/>
<path d="M106.782 244.515L106.863 245.75L106.782 245.811L105.633 245.183L106.782 244.515Z" fill="url(#paint32_linear)"/>
<path d="M98.7401 249.619L97.0269 248.606L95.2331 247.553L95.1726 247.573V249.68H95.1928L96.9059 250.693L102.509 253.974V253.265V251.827V251.807L98.7401 249.619Z" fill="url(#paint33_linear)"/>
<path d="M110.309 247.31L109.745 247.634L102.509 251.807V251.827V253.265L110.974 248.363L111.599 247.999L110.309 247.31Z" fill="url(#paint34_linear)"/>
<path d="M107.104 243.927L104.323 242.307L95.2331 247.553L97.0269 248.606L98.7401 249.599L102.509 251.807L109.745 247.654L110.309 247.33L111.619 246.581L107.104 243.927ZM104.585 249.336L103.517 249.923C103.477 249.943 103.436 249.943 103.396 249.923L101.602 248.87C101.542 248.829 101.521 248.748 101.562 248.687C101.582 248.667 101.582 248.647 101.602 248.647L102.67 248.059C102.711 248.039 102.771 248.039 102.791 248.059L104.585 249.133C104.646 249.174 104.666 249.255 104.625 249.315C104.605 249.315 104.605 249.336 104.585 249.336ZM107.487 247.411L106.419 247.999C106.379 248.019 106.339 248.019 106.298 247.999L104.504 246.925C104.444 246.885 104.424 246.804 104.444 246.743C104.464 246.723 104.484 246.702 104.504 246.682L105.553 246.095C105.593 246.074 105.653 246.074 105.694 246.095L107.487 247.168C107.548 247.188 107.588 247.269 107.548 247.33C107.548 247.391 107.528 247.411 107.487 247.411Z" fill="url(#paint35_linear)"/>
<path d="M107.104 240.261V243.927L104.323 242.307L95.2331 247.553H95.1726V249.639H95.1927L96.9261 250.652L93.9834 252.394C93.7214 252.556 93.3586 252.475 93.1974 252.212C93.1369 252.111 93.1168 252.009 93.1168 251.908V247.735C93.1168 247.634 93.1369 247.533 93.1974 247.452C93.2377 247.371 93.3183 247.29 93.3989 247.249L106.238 239.754C106.298 239.714 106.379 239.694 106.439 239.673C106.762 239.633 107.044 239.856 107.084 240.18C107.104 240.2 107.104 240.241 107.104 240.261Z" fill="#97B1CB"/>
<path d="M93.1168 247.756V251.949C93.1168 252.07 93.1571 252.192 93.2175 252.273H93.1974L70.3213 238.843C69.9585 238.62 69.7166 238.235 69.7166 237.79V234.245C69.7166 234.083 69.8577 233.941 70.019 233.941H70.0391C70.0794 233.941 70.1399 233.961 70.1802 233.981L93.0966 247.411L93.1772 247.452C93.1369 247.553 93.1168 247.654 93.1168 247.756Z" fill="url(#paint36_linear)"/>
<path d="M106.238 239.775L93.3989 247.249C93.3183 247.29 93.2377 247.371 93.1974 247.452L93.1168 247.411L70.2003 233.981C70.16 233.961 70.1197 233.941 70.0593 233.941V233.839L82.6965 226.426C83.1803 226.142 83.7849 226.142 84.2687 226.426L106.419 239.673C106.359 239.694 106.298 239.714 106.238 239.775ZM98.5385 242.226C98.5385 241.983 98.1354 241.78 97.6315 241.78C97.1276 241.78 96.7245 241.962 96.7245 242.226C96.7245 242.489 97.1276 242.671 97.6315 242.671C98.1354 242.671 98.5385 242.448 98.5385 242.226Z" fill="url(#paint37_linear)"/>
<path d="M16.7691 7.19101C18.321 4.65896 22.2714 0 27.1288 0C38.7584 0 39.8467 9.11537 39.8467 9.11537C39.8467 9.11537 42.1847 6.05665 47.4452 6.23896C56.3941 6.56306 56.9584 15.5771 56.9584 15.5771H0C0 15.5771 1.45117 5.18563 9.00935 4.51717C11.8714 4.21332 14.7133 5.20589 16.7691 7.19101Z" fill="url(#paint38_linear)"/>
<path d="M7.06582 45.2315C7.71974 44.0936 9.38429 42 11.431 42C16.3312 42 16.7898 46.0962 16.7898 46.0962C16.7898 46.0962 17.7749 44.7217 19.9915 44.8036C23.7622 44.9493 24 49 24 49H0C0 49 0.611465 44.3303 3.79618 44.0299C5.00212 43.8934 6.19957 44.3394 7.06582 45.2315Z" fill="url(#paint39_linear)"/>
</g>
<defs>
<linearGradient id="paint0_linear" x1="110.367" y1="213.52" x2="163.82" y2="120.445" gradientUnits="userSpaceOnUse">
<stop stop-color="#C7D1E0"/>
<stop offset="1" stop-color="#B3CADE"/>
</linearGradient>
<linearGradient id="paint1_linear" x1="59.8164" y1="182.246" x2="196.685" y2="182.246" gradientUnits="userSpaceOnUse">
<stop stop-color="#9ABED8"/>
<stop offset="1" stop-color="#9ABED8" stop-opacity="0.7"/>
</linearGradient>
<linearGradient id="paint2_linear" x1="108.911" y1="189.791" x2="177.43" y2="159.057" gradientUnits="userSpaceOnUse">
<stop stop-color="#D7E6F2"/>
<stop offset="1" stop-color="#DEE2F3"/>
</linearGradient>
<linearGradient id="paint3_linear" x1="54.4805" y1="124.351" x2="158.594" y2="139.769" gradientUnits="userSpaceOnUse">
<stop stop-color="#C7D1E0"/>
<stop offset="1" stop-color="#B3CADE"/>
</linearGradient>
<linearGradient id="paint4_linear" x1="58.7079" y1="131.052" x2="141.305" y2="131.052" gradientUnits="userSpaceOnUse">
<stop stop-color="#9ABED8"/>
<stop offset="1" stop-color="#9ABED8" stop-opacity="0.7"/>
</linearGradient>
<linearGradient id="paint5_linear" x1="129.716" y1="194.099" x2="168.027" y2="185.742" gradientUnits="userSpaceOnUse">
<stop stop-color="#C7D1E0"/>
<stop offset="1" stop-color="#B3CADE"/>
</linearGradient>
<linearGradient id="paint6_linear" x1="129.882" y1="186.817" x2="162.739" y2="186.817" gradientUnits="userSpaceOnUse">
<stop stop-color="#9ABED8"/>
<stop offset="1" stop-color="#9ABED8" stop-opacity="0.7"/>
</linearGradient>
<linearGradient id="paint7_linear" x1="104.953" y1="183.131" x2="231.246" y2="139.481" gradientUnits="userSpaceOnUse">
<stop stop-color="#C7D1E0"/>
<stop offset="1" stop-color="#B3CADE"/>
</linearGradient>
<linearGradient id="paint8_linear" x1="173.007" y1="168.415" x2="72.776" y2="168.415" gradientUnits="userSpaceOnUse">
<stop stop-color="#9ABED8"/>
<stop offset="1" stop-color="#9ABED8" stop-opacity="0.7"/>
</linearGradient>
<linearGradient id="paint9_linear" x1="139.819" y1="232.991" x2="145.319" y2="228.23" gradientUnits="userSpaceOnUse">
<stop stop-color="#9ABED8"/>
<stop offset="1" stop-color="#9ABED8" stop-opacity="0.7"/>
</linearGradient>
<linearGradient id="paint10_linear" x1="133.399" y1="238.457" x2="135.157" y2="235.912" gradientUnits="userSpaceOnUse">
<stop stop-color="#9ABED8"/>
<stop offset="1" stop-color="#9ABED8" stop-opacity="0.7"/>
</linearGradient>
<linearGradient id="paint11_linear" x1="249.67" y1="116.976" x2="204.826" y2="142.535" gradientUnits="userSpaceOnUse">
<stop stop-color="#F5F8FD"/>
<stop offset="1" stop-color="white"/>
</linearGradient>
<linearGradient id="paint12_linear" x1="191.026" y1="117.886" x2="236.669" y2="132.051" gradientUnits="userSpaceOnUse">
<stop stop-color="#F5F8FD"/>
<stop offset="1" stop-color="white"/>
</linearGradient>
<linearGradient id="paint13_linear" x1="122.94" y1="36.6163" x2="186.182" y2="54.9966" gradientUnits="userSpaceOnUse">
<stop stop-color="#EFECF7"/>
<stop offset="1" stop-color="#FBF9FC"/>
</linearGradient>
<linearGradient id="paint14_linear" x1="122.94" y1="36.6163" x2="186.182" y2="54.9966" gradientUnits="userSpaceOnUse">
<stop stop-color="#EF4444"/>
<stop offset="1" stop-color="#FBF9FC"/>
</linearGradient>
<linearGradient id="paint15_linear" x1="66.4556" y1="58.4413" x2="106.194" y2="69.9792" gradientUnits="userSpaceOnUse">
<stop stop-color="#EF4444"/>
<stop offset="1" stop-color="#FBF9FC"/>
</linearGradient>
<linearGradient id="paint16_linear" x1="72.0745" y1="210.8" x2="77.6606" y2="208.277" gradientUnits="userSpaceOnUse">
<stop stop-color="#9ABED8"/>
<stop offset="1" stop-color="#9ABED8" stop-opacity="0.7"/>
</linearGradient>
<linearGradient id="paint17_linear" x1="85.4145" y1="216.724" x2="88.0314" y2="214.502" gradientUnits="userSpaceOnUse">
<stop stop-color="#9ABED8"/>
<stop offset="1" stop-color="#9ABED8" stop-opacity="0.7"/>
</linearGradient>
<linearGradient id="paint18_linear" x1="67.3636" y1="217.32" x2="69.7053" y2="216.077" gradientUnits="userSpaceOnUse">
<stop stop-color="#9ABED8"/>
<stop offset="1" stop-color="#9ABED8" stop-opacity="0.7"/>
</linearGradient>
<linearGradient id="paint19_linear" x1="170.944" y1="132.717" x2="189.906" y2="132.717" gradientUnits="userSpaceOnUse">
<stop stop-color="#C18285"/>
<stop offset="1" stop-color="#D6999F" stop-opacity="0"/>
</linearGradient>
<linearGradient id="paint20_linear" x1="204.512" y1="127.488" x2="214.696" y2="127.488" gradientUnits="userSpaceOnUse">
<stop stop-color="#C18285"/>
<stop offset="1" stop-color="#D6999F" stop-opacity="0"/>
</linearGradient>
<linearGradient id="paint21_linear" x1="203.321" y1="113.021" x2="175.523" y2="115.035" gradientUnits="userSpaceOnUse">
<stop stop-color="#C18285"/>
<stop offset="1" stop-color="#D6999F" stop-opacity="0"/>
</linearGradient>
<linearGradient id="paint22_linear" x1="168.695" y1="198.781" x2="169.952" y2="196.276" gradientUnits="userSpaceOnUse">
<stop stop-color="#9ABED8"/>
<stop offset="1" stop-color="#9ABED8" stop-opacity="0.7"/>
</linearGradient>
<linearGradient id="paint23_linear" x1="148.255" y1="107.373" x2="67.1437" y2="126.54" gradientUnits="userSpaceOnUse">
<stop offset="0.000500801" stop-color="#006EFF"/>
<stop offset="0.7796" stop-color="#00D4FF"/>
<stop offset="1" stop-color="#00E2FF"/>
</linearGradient>
<linearGradient id="paint24_linear" x1="82.4136" y1="151.362" x2="138.034" y2="125.674" gradientUnits="userSpaceOnUse">
<stop stop-color="#C7D1E0"/>
<stop offset="1" stop-color="#B3CADE"/>
</linearGradient>
<linearGradient id="paint25_linear" x1="81.6184" y1="164.184" x2="127.415" y2="136.304" gradientUnits="userSpaceOnUse">
<stop stop-color="#C7D1E0"/>
<stop offset="1" stop-color="#B3CADE"/>
</linearGradient>
<linearGradient id="paint26_linear" x1="176.858" y1="88.1941" x2="197.989" y2="118.068" gradientUnits="userSpaceOnUse">
<stop stop-color="#A5BDCB"/>
<stop offset="1" stop-color="#D8E9F4" stop-opacity="0"/>
</linearGradient>
<linearGradient id="paint27_linear" x1="179.212" y1="57.7545" x2="211.524" y2="92.3685" gradientUnits="userSpaceOnUse">
<stop stop-color="#A5BDCB"/>
<stop offset="1" stop-color="#D8E9F4" stop-opacity="0"/>
</linearGradient>
<linearGradient id="paint28_linear" x1="97.9142" y1="250.751" x2="107.096" y2="250.751" gradientUnits="userSpaceOnUse">
<stop stop-color="#FFEC5E"/>
<stop offset="1" stop-color="#FFCF48"/>
</linearGradient>
<linearGradient id="paint29_linear" x1="96.7883" y1="242.712" x2="98.6565" y2="241.611" gradientUnits="userSpaceOnUse">
<stop stop-color="#EF4444"/>
<stop offset="1" stop-color="#A42B2B"/>
</linearGradient>
<linearGradient id="paint30_linear" x1="102.597" y1="249.15" x2="106.032" y2="247.965" gradientUnits="userSpaceOnUse">
<stop stop-color="#C7D1E0"/>
<stop offset="1" stop-color="#B3CADE"/>
</linearGradient>
<linearGradient id="paint31_linear" x1="105.506" y1="247.227" x2="108.941" y2="246.042" gradientUnits="userSpaceOnUse">
<stop stop-color="#C7D1E0"/>
<stop offset="1" stop-color="#B3CADE"/>
</linearGradient>
<linearGradient id="paint32_linear" x1="106.136" y1="245.383" x2="107.741" y2="244.829" gradientUnits="userSpaceOnUse">
<stop stop-color="#C7D1E0"/>
<stop offset="1" stop-color="#B3CADE"/>
</linearGradient>
<linearGradient id="paint33_linear" x1="100.441" y1="249.858" x2="97.1934" y2="251.703" gradientUnits="userSpaceOnUse">
<stop stop-color="#F5F8FD"/>
<stop offset="1" stop-color="white"/>
</linearGradient>
<linearGradient id="paint34_linear" x1="112.238" y1="248.89" x2="103.078" y2="251.056" gradientUnits="userSpaceOnUse">
<stop stop-color="#FFEC5E"/>
<stop offset="1" stop-color="#FFCE4A"/>
</linearGradient>
<linearGradient id="paint35_linear" x1="101.156" y1="248.076" x2="109.178" y2="244.479" gradientUnits="userSpaceOnUse">
<stop stop-color="#D7E6F2"/>
<stop offset="1" stop-color="#DEE2F3"/>
</linearGradient>
<linearGradient id="paint36_linear" x1="69.7273" y1="243.11" x2="93.2149" y2="243.11" gradientUnits="userSpaceOnUse">
<stop stop-color="#9ABED8"/>
<stop offset="1" stop-color="#9ABED8" stop-opacity="0.7"/>
</linearGradient>
<linearGradient id="paint37_linear" x1="96.8049" y1="231.838" x2="79.259" y2="241.837" gradientUnits="userSpaceOnUse">
<stop stop-color="#F5F8FD"/>
<stop offset="1" stop-color="white"/>
</linearGradient>
<linearGradient id="paint38_linear" x1="23.9565" y1="10.3497" x2="72.852" y2="23.9721" gradientUnits="userSpaceOnUse">
<stop stop-color="#EF4444"/>
<stop offset="1" stop-color="#FBF9FC"/>
</linearGradient>
<linearGradient id="paint39_linear" x1="10.0943" y1="46.6509" x2="30.8777" y2="52.0802" gradientUnits="userSpaceOnUse">
<stop stop-color="#EF4444"/>
<stop offset="1" stop-color="#FBF9FC"/>
</linearGradient>
<clipPath id="clip0">
<rect width="291" height="256" fill="white"/>
</clipPath>
</defs>
</svg>
