<svg width="112" height="31" viewBox="0 0 112 31" fill="none"
    xmlns="http://www.w3.org/2000/svg">
    <path d="M105.663 1.27688L112 0.328278V22.1971H105.663V1.27688Z" fill="white"/>
    <path d="M40.4409 1.27688L46.7836 0.328278V22.1971H40.4409V1.27688Z" fill="white"/>
    <path d="M99.9861 2.41766C98.3779 0.808417 96.1997 0.000972378 93.4685 0.000972378C91.9133 -0.0200452 90.3725 0.299883 88.9541 0.938286C87.6272 1.52998 86.4649 2.43714 85.5683 3.58083C85.5664 3.59394 85.5664 3.60725 85.5683 3.62036C85.2953 3.18728 84.9776 2.78416 84.6203 2.41766C83.0064 0.810299 80.8319 0.00473669 78.097 0.000972378C76.5498 -0.0192496 75.0168 0.298707 73.6052 0.932639C72.2787 1.52512 71.1166 2.43214 70.2194 3.57519C69.4772 2.43355 68.4344 1.51911 67.206 0.932639C65.8993 0.309227 64.4664 -0.00381596 63.0189 0.0179116C61.6889 0.0017772 60.369 0.251328 59.1366 0.751953C57.9922 1.21631 56.9705 1.93905 56.1514 2.86373V0.328467L50.0965 1.27707V22.1972H56.4336V11.2205C56.4336 9.32329 56.8624 7.89473 57.7315 6.93483C58.1725 6.45286 58.7139 6.07361 59.3175 5.82385C59.921 5.57409 60.572 5.4599 61.2245 5.48934C63.9895 5.48934 65.3721 7.20963 65.3721 10.6502V22.1972H71.7091V11.2205C71.7091 9.33835 72.1418 7.90979 73.007 6.93483C73.4552 6.44963 74.0043 6.06873 74.6157 5.81897C75.227 5.56922 75.8856 5.45669 76.5452 5.48934C77.1197 5.45552 77.6944 5.55341 78.2254 5.77554C78.7564 5.99766 79.2298 6.33816 79.6093 6.77109C80.3241 7.62559 80.6833 8.91863 80.6871 10.6502V22.1972H87.0242V22.0053C87.0637 22.1295 87.0806 22.1972 87.0806 22.1972V11.2205C87.0806 9.33835 87.5151 7.90979 88.3841 6.93483C88.8317 6.45038 89.3799 6.06992 89.9902 5.82019C90.6005 5.57046 91.2581 5.45753 91.9166 5.48934C92.4919 5.45634 93.0672 5.55457 93.599 5.77661C94.1308 5.99866 94.6052 6.33871 94.9864 6.77109C95.7012 7.62559 96.0586 8.91863 96.0586 10.6502V22.1972H102.401V9.67902C102.405 6.44924 101.6 4.02879 99.9861 2.41766Z" fill="white"/>
    <path d="M1.13203 21.3842C0.762255 21.0149 0.471491 20.5741 0.27746 20.0887C0.0834292 19.6034 -0.00980511 19.0835 0.00343803 18.5609C-0.0191529 18.0372 0.0697874 17.5146 0.264361 17.0279C0.458935 16.5412 0.754697 16.1014 1.13203 15.7377C1.50702 15.3792 1.94971 15.0992 2.43419 14.914C2.91866 14.7288 3.43519 14.6422 3.95353 14.6592C4.47183 14.6425 4.98827 14.7293 5.4727 14.9145C5.95713 15.0996 6.39985 15.3795 6.77502 15.7377C7.15148 16.102 7.44666 16.5419 7.64117 17.0285C7.83568 17.5151 7.92512 18.0373 7.90361 18.5609C7.91554 19.0834 7.82171 19.6028 7.62775 20.088C7.4338 20.5732 7.14373 21.0141 6.77502 21.3842C6.40715 21.7558 5.96687 22.0478 5.48151 22.2421C4.99614 22.4363 4.47606 22.5287 3.95353 22.5135C3.43095 22.5291 2.91077 22.4368 2.42536 22.2426C1.93995 22.0483 1.4997 21.7561 1.13203 21.3842Z" fill="#EF4444"/>
    <path d="M37.2815 0.322627V18.5381C37.2815 22.5471 36.2376 25.5285 34.1497 27.4821C32.0618 29.4358 29.0145 30.4108 25.008 30.407C22.9792 30.4195 20.9579 30.1593 18.9983 29.6334C17.2904 29.2044 15.6861 28.4363 14.2807 27.3749L16.8031 22.8238C17.8468 23.6525 19.0405 24.2718 20.3187 24.6476C21.684 25.0906 23.1101 25.3173 24.5453 25.3195C26.7404 25.3195 28.3543 24.8283 29.3983 23.8345C30.4422 22.8407 30.9614 21.3501 30.9614 19.3173V18.4365C29.3136 20.2547 27.0113 21.1637 24.0544 21.1637C22.1394 21.1851 20.2491 20.7311 18.5525 19.8425C16.921 18.9862 15.5549 17.6994 14.6024 16.1214C13.6081 14.4519 13.1017 12.5367 13.1408 10.5936C13.1019 8.64864 13.6082 6.7317 14.6024 5.06001C15.555 3.48361 16.9212 2.19861 18.5525 1.34464C20.2491 0.455962 22.1394 0.00199922 24.0544 0.0233648C27.2257 0.0233648 29.6372 1.06608 31.2887 3.15151V1.27688L37.2815 0.322627ZM29.4152 14.4388C29.9486 13.9493 30.37 13.3503 30.6505 12.6827C30.931 12.0151 31.064 11.2948 31.0404 10.571C31.0682 9.84568 30.9389 9.12296 30.6613 8.4524C30.3837 7.78183 29.9644 7.17932 29.4321 6.6862C28.304 5.67437 26.8266 5.14174 25.3128 5.20118C23.7908 5.14384 22.3053 5.67572 21.1652 6.6862C20.6286 7.17682 20.2053 7.77848 19.9247 8.44935C19.644 9.12022 19.5127 9.8442 19.54 10.571C19.5132 11.2968 19.6447 12.0198 19.9253 12.6897C20.206 13.3596 20.6291 13.9603 21.1652 14.4501C22.3041 15.4626 23.7904 15.9948 25.3128 15.9351C26.8212 15.9925 28.2926 15.4598 29.4152 14.4501V14.4388Z" fill="white"/>
</svg>
