<svg width="99" height="51" viewBox="0 0 99 51" fill="none" xmlns="http://www.w3.org/2000/svg">
<path d="M98.4196 35.1128C98.1507 34.8049 97.7887 34.5931 97.3886 34.5096C97.1152 34.4368 96.8375 34.3813 96.5572 34.3432C95.0439 34.0437 94.2859 32.9344 94.2831 31.0153V29.0269C94.2831 27.1633 94.175 25.8654 93.9505 25.1291C93.7465 24.4188 93.3509 23.7784 92.8073 23.278C92.2897 22.809 91.6771 22.4571 91.0113 22.2464C90.2761 21.9987 89.5048 21.875 88.729 21.8803H35.5489C34.6954 21.8795 33.8493 22.0389 33.0546 22.3504C32.3317 22.6264 31.6898 23.0798 31.1879 23.669C30.7864 24.1991 30.5029 24.809 30.3565 25.4578C30.15 26.6342 30.0664 27.829 30.107 29.0228V30.9987C30.107 32.915 29.3712 34.0118 27.8995 34.2892C27.5908 34.3438 27.2854 34.416 26.9849 34.5055C26.5837 34.5839 26.2196 34.793 25.9498 35.1003C25.7181 35.4305 25.6039 35.829 25.6255 36.2318C25.5938 36.6809 25.7301 37.1257 26.008 37.4798C26.3231 37.7979 26.7391 37.9964 27.1845 38.0413C27.241 38.0462 27.2968 38.0573 27.3508 38.0746C29.1883 38.3741 30.107 39.5209 30.107 41.5148V43.4408C30.056 44.7402 30.1649 46.0409 30.4313 47.3137C30.6194 48.0198 31.0027 48.6585 31.5371 49.1565C32.0573 49.6281 32.6706 49.9852 33.3373 50.2048C34.06 50.4585 34.8204 50.5879 35.5864 50.5875H88.7997C89.6729 50.5904 90.5384 50.4237 91.3481 50.0966C92.0658 49.8429 92.7088 49.414 93.2189 48.8487C93.6247 48.3399 93.909 47.7452 94.0503 47.1098C94.2582 45.9056 94.3418 44.6831 94.2998 43.4616V41.519C94.2998 39.5777 95.0799 38.4532 96.6403 38.1453L97.3886 38.0122C97.7829 37.9288 98.1383 37.7167 98.3988 37.409C98.6457 37.0694 98.769 36.6554 98.7481 36.236C98.7685 35.8352 98.6527 35.4393 98.4196 35.1128ZM44.2834 39.0647C44.61 39.4043 45.0039 39.6719 45.4399 39.8503C45.8759 40.0287 46.3444 40.1139 46.8152 40.1005C48.2287 40.1005 49.3096 39.3725 50.0454 37.9124L54.448 40.1587C53.8984 41.5431 52.896 42.7001 51.6044 43.4408C50.1542 44.2557 48.5111 44.6638 46.8484 44.6222C45.1795 44.652 43.5276 44.2826 42.0302 43.5448C40.6589 42.8793 39.5071 41.8343 38.7113 40.5337C37.9155 39.2332 37.5091 37.7315 37.5403 36.2068C37.5061 34.6875 37.9118 33.1908 38.7084 31.8969C39.505 30.6031 40.6586 29.5674 42.0302 28.9146C43.53 28.1848 45.1809 27.8199 46.8484 27.8497C48.5125 27.8073 50.1571 28.2155 51.6086 29.0311C52.9001 29.7718 53.9025 30.9288 54.4521 32.3132L50.0496 34.5595C49.3137 33.0994 48.2328 32.3715 46.8193 32.3715C46.35 32.3579 45.8829 32.4415 45.4472 32.6168C45.0116 32.7922 44.6168 33.0556 44.2876 33.3906C43.9407 33.769 43.6732 34.2133 43.5011 34.697C43.329 35.1808 43.2557 35.6942 43.2856 36.2068C43.2543 36.7256 43.3263 37.2454 43.4976 37.7361C43.6689 38.2267 43.936 38.6783 44.2834 39.0647ZM69.5639 42.0307C68.8469 42.9079 67.8974 43.5653 66.8242 43.9276C65.4257 44.42 63.9495 44.6539 62.4674 44.6181C61.1166 44.6194 59.7702 44.463 58.4556 44.1522C57.34 43.9222 56.2689 43.5134 55.2836 42.9417L56.9922 39.048C57.8105 39.541 58.6974 39.9097 59.6238 40.1421C60.6093 40.4097 61.6251 40.5495 62.6461 40.5581C63.313 40.5996 63.9813 40.5018 64.6084 40.271C64.7793 40.2093 64.9269 40.0962 65.0311 39.9473C65.1353 39.7984 65.1909 39.6209 65.1904 39.4391C65.1904 39.0813 64.9576 38.8276 64.4878 38.6778C63.7575 38.4748 63.0125 38.3288 62.2595 38.241C61.1362 38.1189 60.0242 37.9089 58.9337 37.6129C58.0338 37.3597 57.221 36.8631 56.5848 36.1777C55.8862 35.3646 55.5313 34.3113 55.5954 33.2409C55.584 32.2386 55.9122 31.262 56.5266 30.4704C57.239 29.5871 58.1813 28.9177 59.2496 28.5361C60.6149 28.0364 62.0618 27.798 63.515 27.8331C64.6923 27.8338 65.8665 27.9536 67.0196 28.1908C68.0357 28.3809 69.017 28.7245 69.9297 29.21L68.2169 33.1119C66.7888 32.3155 65.179 31.9028 63.5441 31.9139C62.8707 31.8734 62.1966 31.9813 61.5694 32.23C61.3938 32.2903 61.2402 32.4017 61.1284 32.55C61.0165 32.6982 60.9515 32.8765 60.9417 33.062C60.9417 33.4405 61.1703 33.7026 61.6318 33.8524C62.3737 34.0543 63.1296 34.2003 63.8933 34.2892C65.0165 34.4427 66.1277 34.6734 67.2192 34.9797C68.0974 35.2377 68.8891 35.7294 69.5098 36.4024C70.1983 37.2007 70.5474 38.2368 70.4826 39.2893C70.493 40.2804 70.1694 41.2462 69.5639 42.0307ZM85.8771 42.0307C85.1601 42.9079 84.2106 43.5653 83.1374 43.9276C81.739 44.42 80.2627 44.6539 78.7806 44.6181C77.4298 44.6194 76.0834 44.463 74.7688 44.1522C73.6532 43.9222 72.5821 43.5134 71.5968 42.9417L73.3054 39.048C74.1273 39.5436 75.0185 39.9137 75.9495 40.1462C76.935 40.4138 77.9507 40.5536 78.9718 40.5622C79.6387 40.6037 80.3069 40.506 80.9341 40.2752C81.1049 40.2135 81.2526 40.1004 81.3568 39.9515C81.461 39.8025 81.5166 39.625 81.5161 39.4432C81.5161 39.0855 81.2833 38.8317 80.8135 38.682C80.0831 38.479 79.3381 38.3329 78.5852 38.2452C77.4619 38.1231 76.3499 37.9131 75.2594 37.617C74.3594 37.3638 73.5467 36.8672 72.9105 36.1819C72.2119 35.3688 71.857 34.3154 71.9211 33.245C71.9096 32.2428 72.2379 31.2662 72.8523 30.4746C73.5607 29.5916 74.4986 28.9209 75.5629 28.5361C76.9281 28.0364 78.375 27.798 79.8282 27.8331C81.0055 27.8338 82.1797 27.9536 83.3328 28.1908C84.3489 28.3809 85.3302 28.7245 86.2429 29.21L84.5301 33.1119C83.1021 32.3155 81.4922 31.9028 79.8573 31.9139C79.1839 31.8734 78.5098 31.9813 77.8826 32.23C77.707 32.2903 77.5534 32.4017 77.4416 32.55C77.3297 32.6982 77.2647 32.8765 77.2549 33.062C77.2549 33.4405 77.4835 33.7026 77.945 33.8524C78.6902 34.0648 79.4504 34.2205 80.219 34.3183C81.3421 34.4718 82.4534 34.7025 83.5448 35.0088C84.423 35.2668 85.2147 35.7585 85.8355 36.4315C86.5239 37.2298 86.8731 38.2659 86.8083 39.3184C86.8086 40.3011 86.4809 41.2557 85.8771 42.0307Z" fill="#EF4444"/>
<path d="M29.7936 0.940701L34.4664 0.241844V16.353H29.7936V0.940701Z" fill="white"/>
<path d="M73.6616 1.78114C72.4768 0.595576 70.8721 0.000716369 68.8599 0.000716369C67.7142 -0.0147677 66.5791 0.22093 65.5341 0.691253C64.5566 1.12717 63.7003 1.79549 63.0397 2.63807C63.0384 2.64773 63.0384 2.65753 63.0397 2.66719C62.8386 2.34813 62.6045 2.05114 62.3413 1.78114C61.1523 0.596963 59.5504 0.00348961 57.5355 0.000716369C56.3956 -0.0141815 55.2663 0.220063 54.2263 0.687093C53.2491 1.12359 52.3929 1.79181 51.7319 2.63391C51.1851 1.79284 50.4169 1.11916 49.5119 0.687093C48.5492 0.227813 47.4936 -0.00281129 46.4272 0.0131958C45.4473 0.00130929 44.4749 0.185158 43.567 0.553978C42.7239 0.89608 41.9712 1.42853 41.3678 2.10977V0.241988L36.907 0.940845V16.3531H41.5756V8.26636C41.5756 6.86865 41.8916 5.8162 42.5318 5.10902C42.8568 4.75394 43.2556 4.47454 43.7003 4.29054C44.1449 4.10653 44.6245 4.02241 45.1052 4.0441C47.1422 4.0441 48.1608 5.31147 48.1608 7.84621V16.3531H52.8294V8.26636C52.8294 6.87974 53.1481 5.82729 53.7856 5.10902C54.1158 4.75157 54.5203 4.47095 54.9707 4.28695C55.4211 4.10295 55.9063 4.02005 56.3922 4.0441C56.8155 4.01919 57.2389 4.0913 57.6301 4.25495C58.0213 4.41859 58.37 4.66945 58.6496 4.98839C59.1762 5.61791 59.4409 6.57052 59.4437 7.84621V16.3531H64.1123V16.2117C64.1414 16.3032 64.1539 16.3531 64.1539 16.3531V8.26636C64.1539 6.87974 64.474 5.82729 65.1142 5.10902C65.444 4.75212 65.8478 4.47182 66.2975 4.28784C66.7471 4.10386 67.2315 4.02067 67.7167 4.0441C68.1405 4.01979 68.5643 4.09216 68.9561 4.25574C69.3479 4.41932 69.6974 4.66985 69.9782 4.98839C70.5048 5.61791 70.7681 6.57052 70.7681 7.84621V16.3531H75.4409V7.13072C75.4437 4.75128 74.8506 2.96808 73.6616 1.78114Z" fill="white"/>
<path d="M0.833991 15.7541C0.561567 15.4821 0.347356 15.1573 0.20441 14.7998C0.0614639 14.4422 -0.00722361 14.0592 0.00253286 13.6742C-0.0141103 13.2883 0.0514137 12.9034 0.19476 12.5448C0.338106 12.1862 0.555999 11.8622 0.833991 11.5943C1.11025 11.3302 1.43639 11.1239 1.79331 10.9874C2.15023 10.851 2.53077 10.7872 2.91264 10.7997C3.29448 10.7874 3.67495 10.8513 4.03184 10.9878C4.38873 11.1242 4.71489 11.3304 4.99128 11.5943C5.26863 11.8627 5.4861 12.1867 5.6294 12.5452C5.7727 12.9037 5.83859 13.2884 5.82274 13.6742C5.83153 14.0591 5.7624 14.4418 5.61951 14.7992C5.47662 15.1567 5.26292 15.4815 4.99128 15.7541C4.72027 16.0279 4.3959 16.243 4.03833 16.3862C3.68075 16.5293 3.29759 16.5973 2.91264 16.5861C2.52765 16.5976 2.14442 16.5296 1.78681 16.3865C1.42919 16.2434 1.10486 16.0281 0.833991 15.7541Z" fill="#EF4444"/>
<path d="M27.466 0.237662V13.6574C27.466 16.6109 26.6969 18.8073 25.1587 20.2466C23.6205 21.6859 21.3756 22.4042 18.4239 22.4014C16.9292 22.4106 15.4401 22.2189 13.9964 21.8315C12.7382 21.5154 11.5563 20.9496 10.5209 20.1675L12.3792 16.8147C13.1481 17.4252 14.0275 17.8814 14.9692 18.1583C15.975 18.4847 17.0256 18.6517 18.083 18.6534C19.7002 18.6534 20.8892 18.2915 21.6583 17.5593C22.4274 16.8272 22.8098 15.729 22.8098 14.2314V13.5825C21.5959 14.922 19.8997 15.5917 17.7213 15.5917C16.3106 15.6074 14.9179 15.273 13.668 14.6183C12.466 13.9875 11.4596 13.0394 10.7579 11.8769C10.0253 10.6469 9.65228 9.236 9.68112 7.80445C9.6524 6.37159 10.0254 4.95934 10.7579 3.72778C11.4597 2.56642 12.4662 1.61974 13.668 0.990597C14.9179 0.335892 16.3106 0.00144935 17.7213 0.0171898C20.0577 0.0171898 21.8343 0.785377 23.051 2.32175V0.940679L27.466 0.237662ZM21.6707 10.6373C22.0637 10.2767 22.3742 9.8354 22.5808 9.34357C22.7875 8.85175 22.8855 8.32105 22.868 7.78781C22.8886 7.25348 22.7933 6.72103 22.5888 6.22702C22.3843 5.733 22.0753 5.28911 21.6832 4.92582C20.8521 4.18039 19.7636 3.788 18.6484 3.83178C17.5271 3.78954 16.4327 4.18138 15.5928 4.92582C15.1975 5.28728 14.8857 5.73053 14.6789 6.22477C14.4721 6.71901 14.3754 7.25239 14.3955 7.78781C14.3758 8.32257 14.4726 8.85523 14.6794 9.34874C14.8862 9.84226 15.1978 10.2848 15.5928 10.6456C16.4318 11.3916 17.5269 11.7836 18.6484 11.7397C19.7597 11.7819 20.8437 11.3895 21.6707 10.6456V10.6373Z" fill="white"/>
<path d="M81.2395 9.9697C81.3525 11.2828 81.7328 12.202 82.3803 12.7273C83.038 13.2525 84.1017 13.5152 85.5714 13.5152C86.5683 13.5152 87.4985 13.404 88.3618 13.1818C89.2354 12.9495 89.9137 12.7172 90.3967 12.4848L91.5683 15.6818C90.7975 16.1162 89.8212 16.4444 88.6393 16.6667C87.4573 16.8889 86.2189 17 84.9239 17C83.9168 17 83.0226 16.9192 82.2415 16.7576C81.4707 16.6061 80.7461 16.3333 80.0678 15.9394C79.3895 15.5455 78.8294 15.0303 78.3875 14.3939C77.9558 13.7475 77.6166 12.9293 77.37 11.9394C77.1233 10.9394 77 9.77273 77 8.43939C77 5.63131 77.6372 3.52525 78.9116 2.12121C80.186 0.707071 82.1644 0 84.8469 0C89.6156 0 92 2.58081 92 7.74242V9.9697H81.2395ZM81.2703 7.07576H87.8068C87.8068 5.72222 87.5601 4.77778 87.0668 4.24242C86.5735 3.69697 85.8181 3.41414 84.8006 3.39394C82.4676 3.36364 81.2909 4.51515 81.2703 6.84848V7.07576Z" fill="white"/>
</svg>
