<svg width="17" height="16" viewBox="0 0 17 16" fill="none" xmlns="http://www.w3.org/2000/svg">
<path fill-rule="evenodd" clip-rule="evenodd" d="M5.42981 2H4.42981C4.04729 2 3.68985 2.10739 3.386 2.29366C3.28903 2.60978 3.03959 2.85922 2.72347 2.95619C2.5372 3.26004 2.42981 3.61748 2.42981 4V5C2.98209 5 3.42981 5.44772 3.42981 6C3.42981 6.55228 2.98209 7 2.42981 7V9C2.98209 9 3.42981 9.44771 3.42981 10C3.42981 10.5523 2.98209 11 2.42981 11V12C2.42981 12.3825 2.5372 12.74 2.72347 13.0438C3.03959 13.1408 3.28902 13.3902 3.38599 13.7063C3.68985 13.8926 4.04729 14 4.42981 14H5.42981C5.42981 13.4477 5.87752 13 6.42981 13C6.98209 13 7.42981 13.4477 7.42981 14H9.42981C9.42981 13.4477 9.87752 13 10.4298 13C10.9821 13 11.4298 13.4477 11.4298 14H12.4298C12.8123 14 13.1698 13.8926 13.4736 13.7063C13.5706 13.3902 13.82 13.1408 14.1361 13.0438C14.3224 12.74 14.4298 12.3825 14.4298 12V11C13.8775 11 13.4298 10.5523 13.4298 10C13.4298 9.44771 13.8775 9 14.4298 9V7C13.8775 7 13.4298 6.55228 13.4298 6C13.4298 5.44772 13.8775 5 14.4298 5V4C14.4298 3.61748 14.3224 3.26004 14.1361 2.95618C13.82 2.85921 13.5706 2.60979 13.4736 2.29366C13.1698 2.10739 12.8123 2 12.4298 2H11.4298C11.4298 2.55228 10.9821 3 10.4298 3C9.87752 3 9.42981 2.55228 9.42981 2H7.42981C7.42981 2.55228 6.98209 3 6.42981 3C5.87752 3 5.42981 2.55228 5.42981 2ZM4.42981 0C2.22067 0 0.42981 1.79086 0.42981 4V12C0.42981 14.2091 2.22067 16 4.42981 16H12.4298C14.6389 16 16.4298 14.2091 16.4298 12V4C16.4298 1.79086 14.6389 0 12.4298 0H4.42981ZM6.42981 7C6.98209 7 7.42981 6.55228 7.42981 6C7.42981 5.44772 6.98209 5 6.42981 5C5.87752 5 5.42981 5.44772 5.42981 6C5.42981 6.55228 5.87752 7 6.42981 7ZM11.4298 6C11.4298 6.55228 10.9821 7 10.4298 7C9.87752 7 9.42981 6.55228 9.42981 6C9.42981 5.44772 9.87752 5 10.4298 5C10.9821 5 11.4298 5.44772 11.4298 6ZM7.42981 10C7.42981 10.5523 6.98209 11 6.42981 11C5.87752 11 5.42981 10.5523 5.42981 10C5.42981 9.44771 5.87752 9 6.42981 9C6.98209 9 7.42981 9.44771 7.42981 10ZM11.4298 10C11.4298 10.5523 10.9821 11 10.4298 11C9.87752 11 9.42981 10.5523 9.42981 10C9.42981 9.44771 9.87752 9 10.4298 9C10.9821 9 11.4298 9.44771 11.4298 10Z" fill="#EF4444"/>
</svg>
