<svg width="17" height="20" viewBox="0 0 17 20" fill="none" xmlns="http://www.w3.org/2000/svg">
<path d="M8.37 19.184C6.582 19.184 5.058 18.842 3.798 18.158C2.55 17.486 1.602 16.568 0.954 15.404C0.318 14.24 0 12.938 0 11.498C0 9.626 0.384 7.868 1.152 6.224C1.932 4.58 3.09 3.248 4.626 2.228C6.174 1.208 8.034 0.697998 10.206 0.697998C11.538 0.697998 12.714 0.943998 13.734 1.436C14.754 1.928 15.552 2.66 16.128 3.632C16.704 4.592 16.992 5.762 16.992 7.142C16.992 8.522 16.752 9.74 16.272 10.796C15.804 11.852 15.186 12.668 14.418 13.244C13.662 13.808 12.87 14.09 12.042 14.09C10.818 14.09 10.026 13.586 9.666 12.578C9.438 13.046 9.126 13.418 8.73 13.694C8.346 13.958 7.908 14.09 7.416 14.09C6.612 14.09 5.982 13.826 5.526 13.298C5.082 12.758 4.86 12.044 4.86 11.156C4.86 10.196 5.082 9.29 5.526 8.438C5.97 7.574 6.558 6.884 7.29 6.368C8.034 5.84 8.82 5.576 9.648 5.576C9.912 5.576 10.086 5.63 10.17 5.738C10.266 5.834 10.344 6.014 10.404 6.278C10.656 6.23 10.92 6.206 11.196 6.206C11.784 6.206 12.078 6.416 12.078 6.836C12.078 7.088 11.988 7.688 11.808 8.636C11.532 10.016 11.394 10.976 11.394 11.516C11.394 11.72 11.46 11.888 11.592 12.02C11.724 12.152 11.94 12.218 12.24 12.218C12.636 12.218 13.044 11.996 13.464 11.552C13.884 11.096 14.232 10.478 14.508 9.698C14.796 8.906 14.94 8.042 14.94 7.106C14.94 5.666 14.496 4.568 13.608 3.812C12.732 3.056 11.526 2.678 9.99 2.678C8.346 2.678 6.948 3.08 5.796 3.884C4.644 4.688 3.78 5.756 3.204 7.088C2.628 8.408 2.34 9.848 2.34 11.408C2.34 13.172 2.844 14.582 3.852 15.638C4.872 16.706 6.402 17.24 8.442 17.24C9.378 17.24 10.302 17.114 11.214 16.862C12.138 16.622 13.092 16.244 14.076 15.728C14.232 15.644 14.382 15.602 14.526 15.602C14.766 15.602 14.964 15.692 15.12 15.872C15.276 16.064 15.354 16.292 15.354 16.556C15.354 16.748 15.306 16.928 15.21 17.096C15.114 17.276 14.964 17.426 14.76 17.546C13.896 18.074 12.894 18.476 11.754 18.752C10.626 19.04 9.498 19.184 8.37 19.184ZM7.956 12.272C8.22 12.272 8.472 12.116 8.712 11.804C8.952 11.492 9.126 11.078 9.234 10.562L9.9 7.25C9.396 7.262 8.928 7.454 8.496 7.826C8.076 8.186 7.74 8.666 7.488 9.266C7.236 9.866 7.11 10.502 7.11 11.174C7.11 11.546 7.182 11.822 7.326 12.002C7.482 12.182 7.692 12.272 7.956 12.272Z" fill="#EF4444"/>
</svg>
