<svg width="16" height="17" viewBox="0 0 16 17" fill="none" xmlns="http://www.w3.org/2000/svg">
<path d="M14.5678 1.06C14.9398 1.132 15.2158 1.258 15.3958 1.438C15.5878 1.618 15.6838 1.828 15.6838 2.068C15.6838 2.464 15.5698 2.752 15.3418 2.932C15.1258 3.112 14.7778 3.184 14.2978 3.148C13.2178 3.064 12.3718 3.01 11.7598 2.986C11.1598 2.95 10.3678 2.926 9.38381 2.914C8.93981 5.122 8.53182 7.342 8.15981 9.574C8.02782 10.39 7.88981 11.338 7.74581 12.418C7.60181 13.486 7.50581 14.35 7.45781 15.01C7.43381 15.358 7.28981 15.628 7.02581 15.82C6.76181 16 6.44381 16.09 6.07181 16.09C5.67581 16.09 5.36981 15.994 5.15381 15.802C4.93781 15.61 4.82981 15.358 4.82981 15.046C4.82981 14.758 4.87181 14.284 4.95581 13.624C5.05181 12.952 5.15981 12.25 5.27981 11.518C5.41181 10.786 5.51381 10.15 5.58581 9.61C5.71781 8.698 5.86781 7.792 6.03581 6.892C6.20381 5.992 6.37181 5.14 6.53981 4.336C6.57581 4.156 6.61781 3.952 6.66581 3.724C6.71381 3.484 6.76781 3.22 6.82781 2.932C5.65181 2.968 4.72781 3.064 4.05581 3.22C3.38381 3.376 2.90381 3.598 2.61581 3.886C2.33981 4.162 2.20181 4.522 2.20181 4.966C2.20181 5.374 2.32181 5.764 2.56181 6.136C2.60981 6.22 2.63381 6.31 2.63381 6.406C2.63381 6.634 2.49581 6.85 2.21981 7.054C1.95581 7.246 1.67981 7.342 1.39181 7.342C1.18781 7.342 1.01981 7.282 0.887814 7.162C0.647814 6.958 0.449815 6.67 0.293814 6.298C0.137814 5.914 0.0598145 5.482 0.0598145 5.002C0.0598145 3.982 0.389815 3.166 1.04981 2.554C1.72181 1.93 2.73581 1.474 4.09181 1.186C5.45981 0.897998 7.21181 0.753998 9.34781 0.753998C10.6678 0.753998 11.7178 0.777998 12.4978 0.825998C13.2898 0.873998 13.9798 0.951998 14.5678 1.06Z" fill="url(#paint0_linear)"/>
<defs>
<linearGradient id="paint0_linear" x1="0.0598145" y1="16.09" x2="15.6838" y2="16.09" gradientUnits="userSpaceOnUse">
<stop stop-color="#EF4444" stop-opacity="0"/>
<stop offset="1" stop-color="#EF4444"/>
</linearGradient>
</defs>
</svg>
