<svg width="18" height="18" viewBox="0 0 18 18" fill="none" xmlns="http://www.w3.org/2000/svg">
<g opacity="0.64">
<path opacity="0.4" d="M16.0678 2.56C16.4398 2.632 16.7158 2.758 16.8958 2.938C17.0878 3.118 17.1838 3.328 17.1838 3.568C17.1838 3.964 17.0698 4.252 16.8418 4.432C16.6258 4.612 16.2778 4.684 15.7978 4.648C14.7178 4.564 13.8718 4.51 13.2598 4.486C12.6598 4.45 11.8678 4.426 10.8838 4.414C10.4398 6.622 10.0318 8.842 9.65981 11.074C9.52782 11.89 9.38981 12.838 9.24581 13.918C9.10181 14.986 9.00581 15.85 8.95781 16.51C8.93381 16.858 8.78981 17.128 8.52581 17.32C8.26181 17.5 7.94381 17.59 7.57181 17.59C7.17581 17.59 6.86981 17.494 6.65381 17.302C6.43781 17.11 6.32981 16.858 6.32981 16.546C6.32981 16.258 6.37181 15.784 6.45581 15.124C6.55181 14.452 6.65981 13.75 6.77981 13.018C6.91181 12.286 7.01381 11.65 7.08581 11.11C7.21781 10.198 7.36781 9.292 7.53581 8.392C7.70381 7.492 7.87181 6.64 8.03981 5.836C8.07581 5.656 8.11781 5.452 8.16581 5.224C8.21381 4.984 8.26781 4.72 8.32781 4.432C7.15181 4.468 6.22781 4.564 5.55581 4.72C4.88381 4.876 4.40381 5.098 4.11581 5.386C3.83981 5.662 3.70181 6.022 3.70181 6.466C3.70181 6.874 3.82181 7.264 4.06181 7.636C4.10981 7.72 4.13381 7.81 4.13381 7.906C4.13381 8.134 3.99581 8.35 3.71981 8.554C3.45581 8.746 3.17981 8.842 2.89181 8.842C2.68781 8.842 2.51981 8.782 2.38781 8.662C2.14781 8.458 1.94981 8.17 1.79381 7.798C1.63781 7.414 1.55981 6.982 1.55981 6.502C1.55981 5.482 1.88981 4.666 2.54981 4.054C3.22181 3.43 4.23581 2.974 5.59181 2.686C6.95981 2.398 8.71181 2.254 10.8478 2.254C12.1678 2.254 13.2178 2.278 13.9978 2.326C14.7898 2.374 15.4798 2.452 16.0678 2.56Z" fill="white"/>
<path opacity="0.9" d="M14.5678 1.06C14.9398 1.132 15.2158 1.258 15.3958 1.438C15.5878 1.618 15.6838 1.828 15.6838 2.068C15.6838 2.464 15.5698 2.752 15.3418 2.932C15.1258 3.112 14.7778 3.184 14.2978 3.148C13.2178 3.064 12.3718 3.01 11.7598 2.986C11.1598 2.95 10.3678 2.926 9.38381 2.914C8.93981 5.122 8.53182 7.342 8.15981 9.574C8.02782 10.39 7.88981 11.338 7.74581 12.418C7.60181 13.486 7.50581 14.35 7.45781 15.01C7.43381 15.358 7.28981 15.628 7.02581 15.82C6.76181 16 6.44381 16.09 6.07181 16.09C5.67581 16.09 5.36981 15.994 5.15381 15.802C4.93781 15.61 4.82981 15.358 4.82981 15.046C4.82981 14.758 4.87181 14.284 4.95581 13.624C5.05181 12.952 5.15981 12.25 5.27981 11.518C5.41181 10.786 5.51381 10.15 5.58581 9.61C5.71781 8.698 5.86781 7.792 6.03581 6.892C6.20381 5.992 6.37181 5.14 6.53981 4.336C6.57581 4.156 6.61781 3.952 6.66581 3.724C6.71381 3.484 6.76781 3.22 6.82781 2.932C5.65181 2.968 4.72781 3.064 4.05581 3.22C3.38381 3.376 2.90381 3.598 2.61581 3.886C2.33981 4.162 2.20181 4.522 2.20181 4.966C2.20181 5.374 2.32181 5.764 2.56181 6.136C2.60981 6.22 2.63381 6.31 2.63381 6.406C2.63381 6.634 2.49581 6.85 2.21981 7.054C1.95581 7.246 1.67981 7.342 1.39181 7.342C1.18781 7.342 1.01981 7.282 0.887814 7.162C0.647814 6.958 0.449815 6.67 0.293814 6.298C0.137814 5.914 0.0598145 5.482 0.0598145 5.002C0.0598145 3.982 0.389815 3.166 1.04981 2.554C1.72181 1.93 2.73581 1.474 4.09181 1.186C5.45981 0.897998 7.21181 0.753998 9.34781 0.753998C10.6678 0.753998 11.7178 0.777998 12.4978 0.825998C13.2898 0.873998 13.9798 0.951998 14.5678 1.06Z" fill="white"/>
</g>
</svg>
