<svg width="512" height="512" viewBox="0 0 512 512" fill="none" xmlns="http://www.w3.org/2000/svg">
<path d="M30.575 335.03C25.814 330.275 22.0704 324.601 19.5723 318.351C17.0742 312.102 15.8738 305.409 16.0443 298.681C15.7534 291.938 16.8985 285.21 19.4037 278.943C21.9088 272.676 25.7167 267.014 30.575 262.332C35.4029 257.716 41.1025 254.111 47.3402 251.727C53.5778 249.343 60.228 248.227 66.9017 248.446C73.5748 248.231 80.224 249.349 86.461 251.733C92.6981 254.117 98.3981 257.72 103.228 262.332C108.075 267.023 111.876 272.686 114.38 278.951C116.884 285.216 118.036 291.939 117.759 298.681C117.913 305.407 116.705 312.095 114.207 318.342C111.71 324.589 107.976 330.265 103.228 335.03C98.4921 339.815 92.8235 343.575 86.5744 346.076C80.3254 348.577 73.6292 349.766 66.9017 349.57C60.1736 349.771 53.4762 348.583 47.2265 346.082C40.9768 343.58 35.3087 339.818 30.575 335.03V335.03Z" fill="#EF4444"/>
<path d="M496 63.8623V298.387C496 350.003 482.559 388.388 455.677 413.541C428.796 438.695 389.563 451.247 337.979 451.199C311.858 451.36 285.833 448.01 260.603 441.239C238.614 435.715 217.959 425.827 199.865 412.16L232.341 353.565C245.777 364.235 261.146 372.208 277.604 377.047C295.182 382.749 313.542 385.668 332.021 385.698C360.283 385.698 381.062 379.373 394.503 366.578C407.944 353.783 414.628 334.591 414.628 308.419V297.078C393.413 320.487 363.771 332.192 325.7 332.192C301.046 332.467 276.708 326.622 254.863 315.18C233.858 304.156 216.269 287.588 204.006 267.272C191.204 245.776 184.685 221.119 185.189 196.101C184.687 171.06 191.205 146.379 204.006 124.856C216.271 104.56 233.86 88.0156 254.863 77.0207C276.708 65.579 301.046 59.7342 325.7 60.0093C366.532 60.0093 397.579 73.4342 418.842 100.284V76.1483L496 63.8623ZM394.721 245.608C401.589 239.306 407.014 231.594 410.626 222.999C414.237 214.403 415.949 205.129 415.645 195.81C416.004 186.472 414.339 177.167 410.765 168.533C407.191 159.9 401.792 152.142 394.939 145.793C380.415 132.766 361.392 125.908 341.902 126.674C322.307 125.935 303.181 132.783 288.502 145.793C281.594 152.11 276.144 159.856 272.531 168.494C268.917 177.131 267.227 186.453 267.578 195.81C267.233 205.155 268.926 214.464 272.539 223.089C276.153 231.714 281.6 239.448 288.502 245.753C303.165 258.79 322.302 265.642 341.902 264.873C361.323 265.612 380.268 258.754 394.721 245.753V245.608Z" fill="white"/>
</svg>
